solid 2515
facet normal 0.03167513757944107 0.999498188495636 0
  outer loop
    vertex -390.5177612304688 -376.3965759277344 2
    vertex -389.4871215820312 -376.4292297363281 0
    vertex -390.5177612304688 -376.3965759277344 0
  endloop
endfacet
facet normal 0.03167513757944107 0.999498188495636 0
  outer loop
    vertex -389.4871215820312 -376.4292297363281 0
    vertex -390.5177612304688 -376.3965759277344 2
    vertex -389.4871215820312 -376.4292297363281 2
  endloop
endfacet
facet normal -0.2280933409929276 0.9736392498016357 0
  outer loop
    vertex -391.521728515625 -376.6317749023438 2
    vertex -390.5177612304688 -376.3965759277344 0
    vertex -391.521728515625 -376.6317749023438 0
  endloop
endfacet
facet normal -0.2280933409929276 0.9736392498016357 0
  outer loop
    vertex -390.5177612304688 -376.3965759277344 0
    vertex -391.521728515625 -376.6317749023438 2
    vertex -390.5177612304688 -376.3965759277344 2
  endloop
endfacet
facet normal 0 0 1
  outer loop
    vertex -393.8218688964844 -381.7223815917969 2
    vertex -394.0243835449219 -379.6877746582031 2
    vertex -394.0570678710938 -380.7184143066406 2
  endloop
endfacet
facet normal 0 0 1
  outer loop
    vertex -394.0243835449219 -379.6877746582031 2
    vertex -393.8218688964844 -381.7223815917969 2
    vertex -393.7261047363281 -378.7007141113281 2
  endloop
endfacet
facet normal 0 0 1
  outer loop
    vertex -393.7261047363281 -378.7007141113281 2
    vertex -393.8218688964844 -381.7223815917969 2
    vertex -393.3348083496094 -382.6312866210938 2
  endloop
endfacet
facet normal 0 0 1
  outer loop
    vertex -393.7261047363281 -378.7007141113281 2
    vertex -393.3348083496094 -382.6312866210938 2
    vertex -393.1824951171875 -377.824462890625 2
  endloop
endfacet
facet normal 0 0 1
  outer loop
    vertex -393.1824951171875 -377.824462890625 2
    vertex -393.3348083496094 -382.6312866210938 2
    vertex -392.629150390625 -383.3831481933594 2
  endloop
endfacet
facet normal 0 0 1
  outer loop
    vertex -393.1824951171875 -377.824462890625 2
    vertex -392.629150390625 -383.3831481933594 2
    vertex -392.4306335449219 -377.1188049316406 2
  endloop
endfacet
facet normal 0 0 1
  outer loop
    vertex -392.4306335449219 -377.1188049316406 2
    vertex -392.629150390625 -383.3831481933594 2
    vertex -392.1166381835938 -380.5252380371094 2
  endloop
endfacet
facet normal 0 0 1
  outer loop
    vertex -392.1166381835938 -380.5252380371094 2
    vertex -392.629150390625 -383.3831481933594 2
    vertex -391.7529296875 -383.9267578125 2
  endloop
endfacet
facet normal 0 0 1
  outer loop
    vertex -392.1166381835938 -380.5252380371094 2
    vertex -391.7529296875 -383.9267578125 2
    vertex -391.99755859375 -381.0335998535156 2
  endloop
endfacet
facet normal 0 0 1
  outer loop
    vertex -391.99755859375 -381.0335998535156 2
    vertex -391.7529296875 -383.9267578125 2
    vertex -391.7509460449219 -381.4938049316406 2
  endloop
endfacet
facet normal 0 0 1
  outer loop
    vertex -391.7509460449219 -381.4938049316406 2
    vertex -391.7529296875 -383.9267578125 2
    vertex -390.7658386230469 -384.2250366210938 2
  endloop
endfacet
facet normal 0 0 1
  outer loop
    vertex -391.7509460449219 -381.4938049316406 2
    vertex -390.7658386230469 -384.2250366210938 2
    vertex -391.3936462402344 -381.8744812011719 2
  endloop
endfacet
facet normal 0 0 1
  outer loop
    vertex -391.3936462402344 -381.8744812011719 2
    vertex -390.7658386230469 -384.2250366210938 2
    vertex -390.9499816894531 -382.1497192382812 2
  endloop
endfacet
facet normal 0 0 1
  outer loop
    vertex -390.9499816894531 -382.1497192382812 2
    vertex -390.7658386230469 -384.2250366210938 2
    vertex -390.4502258300781 -382.3007507324219 2
  endloop
endfacet
facet normal 0 0 1
  outer loop
    vertex -390.4502258300781 -382.3007507324219 2
    vertex -390.7658386230469 -384.2250366210938 2
    vertex -389.7351989746094 -384.2577209472656 2
  endloop
endfacet
facet normal 0 0 1
  outer loop
    vertex -390.4502258300781 -382.3007507324219 2
    vertex -389.7351989746094 -384.2577209472656 2
    vertex -389.9283752441406 -382.3172912597656 2
  endloop
endfacet
facet normal 0 0 1
  outer loop
    vertex -389.9283752441406 -382.3172912597656 2
    vertex -389.7351989746094 -384.2577209472656 2
    vertex -389.4200134277344 -382.1982116699219 2
  endloop
endfacet
facet normal 0 0 1
  outer loop
    vertex -389.4200134277344 -382.1982116699219 2
    vertex -389.7351989746094 -384.2577209472656 2
    vertex -388.7312316894531 -384.0225219726562 2
  endloop
endfacet
facet normal 0 0 1
  outer loop
    vertex -389.4200134277344 -382.1982116699219 2
    vertex -388.7312316894531 -384.0225219726562 2
    vertex -388.9598388671875 -381.9516296386719 2
  endloop
endfacet
facet normal 0 0 1
  outer loop
    vertex -388.9598388671875 -381.9516296386719 2
    vertex -388.7312316894531 -384.0225219726562 2
    vertex -388.5791320800781 -381.5942993164062 2
  endloop
endfacet
facet normal 0 0 1
  outer loop
    vertex -388.5791320800781 -381.5942993164062 2
    vertex -388.7312316894531 -384.0225219726562 2
    vertex -387.8223571777344 -383.5354919433594 2
  endloop
endfacet
facet normal 0 0 1
  outer loop
    vertex -388.5791320800781 -381.5942993164062 2
    vertex -387.8223571777344 -383.5354919433594 2
    vertex -388.3038940429688 -381.1506652832031 2
  endloop
endfacet
facet normal 0 0 1
  outer loop
    vertex -388.3038940429688 -381.1506652832031 2
    vertex -387.8223571777344 -383.5354919433594 2
    vertex -388.1528625488281 -380.65087890625 2
  endloop
endfacet
facet normal 0 0 1
  outer loop
    vertex -388.1528625488281 -380.65087890625 2
    vertex -387.8223571777344 -383.5354919433594 2
    vertex -388.1363220214844 -380.1290283203125 2
  endloop
endfacet
facet normal 0 0 1
  outer loop
    vertex -392.4306335449219 -377.1188049316406 2
    vertex -392.10009765625 -380.00341796875 2
    vertex -391.521728515625 -376.6317749023438 2
  endloop
endfacet
facet normal 0 0 1
  outer loop
    vertex -392.10009765625 -380.00341796875 2
    vertex -392.4306335449219 -377.1188049316406 2
    vertex -392.1166381835938 -380.5252380371094 2
  endloop
endfacet
facet normal 0 0 1
  outer loop
    vertex -391.521728515625 -376.6317749023438 2
    vertex -392.10009765625 -380.00341796875 2
    vertex -391.9490661621094 -379.5036315917969 2
  endloop
endfacet
facet normal 0 0 1
  outer loop
    vertex -391.521728515625 -376.6317749023438 2
    vertex -391.9490661621094 -379.5036315917969 2
    vertex -391.673828125 -379.0599670410156 2
  endloop
endfacet
facet normal 0 0 1
  outer loop
    vertex -391.521728515625 -376.6317749023438 2
    vertex -391.673828125 -379.0599670410156 2
    vertex -391.2931213378906 -378.7026672363281 2
  endloop
endfacet
facet normal 0 0 1
  outer loop
    vertex -391.521728515625 -376.6317749023438 2
    vertex -391.2931213378906 -378.7026672363281 2
    vertex -390.5177612304688 -376.3965759277344 2
  endloop
endfacet
facet normal 0 0 1
  outer loop
    vertex -390.5177612304688 -376.3965759277344 2
    vertex -391.2931213378906 -378.7026672363281 2
    vertex -390.8329467773438 -378.4560546875 2
  endloop
endfacet
facet normal 0 0 1
  outer loop
    vertex -390.5177612304688 -376.3965759277344 2
    vertex -390.8329467773438 -378.4560546875 2
    vertex -390.3245849609375 -378.3369750976562 2
  endloop
endfacet
facet normal 0 0 1
  outer loop
    vertex -390.5177612304688 -376.3965759277344 2
    vertex -390.3245849609375 -378.3369750976562 2
    vertex -389.4871215820312 -376.4292297363281 2
  endloop
endfacet
facet normal 0 0 1
  outer loop
    vertex -389.4871215820312 -376.4292297363281 2
    vertex -390.3245849609375 -378.3369750976562 2
    vertex -389.8027648925781 -378.353515625 2
  endloop
endfacet
facet normal 0 0 1
  outer loop
    vertex -389.4871215820312 -376.4292297363281 2
    vertex -389.8027648925781 -378.353515625 2
    vertex -389.302978515625 -378.5045471191406 2
  endloop
endfacet
facet normal 0 0 1
  outer loop
    vertex -389.4871215820312 -376.4292297363281 2
    vertex -389.302978515625 -378.5045471191406 2
    vertex -388.5000610351562 -376.7275390625 2
  endloop
endfacet
facet normal 0 0 1
  outer loop
    vertex -388.5000610351562 -376.7275390625 2
    vertex -389.302978515625 -378.5045471191406 2
    vertex -388.8593139648438 -378.77978515625 2
  endloop
endfacet
facet normal 0 0 1
  outer loop
    vertex -388.5000610351562 -376.7275390625 2
    vertex -388.8593139648438 -378.77978515625 2
    vertex -388.5020141601562 -379.1604919433594 2
  endloop
endfacet
facet normal 0 0 1
  outer loop
    vertex -388.5000610351562 -376.7275390625 2
    vertex -388.5020141601562 -379.1604919433594 2
    vertex -388.2554016113281 -379.6206970214844 2
  endloop
endfacet
facet normal 0 0 1
  outer loop
    vertex -388.5000610351562 -376.7275390625 2
    vertex -388.2554016113281 -379.6206970214844 2
    vertex -387.6238098144531 -377.2711181640625 2
  endloop
endfacet
facet normal 0 0 1
  outer loop
    vertex -387.6238098144531 -377.2711181640625 2
    vertex -388.2554016113281 -379.6206970214844 2
    vertex -388.1363220214844 -380.1290283203125 2
  endloop
endfacet
facet normal 0 0 1
  outer loop
    vertex -387.6238098144531 -377.2711181640625 2
    vertex -388.1363220214844 -380.1290283203125 2
    vertex -387.8223571777344 -383.5354919433594 2
  endloop
endfacet
facet normal 0 0 1
  outer loop
    vertex -387.6238098144531 -377.2711181640625 2
    vertex -387.8223571777344 -383.5354919433594 2
    vertex -387.0704650878906 -382.8298034667969 2
  endloop
endfacet
facet normal 0 0 1
  outer loop
    vertex -387.6238098144531 -377.2711181640625 2
    vertex -387.0704650878906 -382.8298034667969 2
    vertex -386.9181518554688 -378.0230102539062 2
  endloop
endfacet
facet normal 0 0 1
  outer loop
    vertex -386.9181518554688 -378.0230102539062 2
    vertex -387.0704650878906 -382.8298034667969 2
    vertex -386.52685546875 -381.9535827636719 2
  endloop
endfacet
facet normal 0 0 1
  outer loop
    vertex -386.9181518554688 -378.0230102539062 2
    vertex -386.52685546875 -381.9535827636719 2
    vertex -386.4311218261719 -378.931884765625 2
  endloop
endfacet
facet normal 0 0 1
  outer loop
    vertex -386.4311218261719 -378.931884765625 2
    vertex -386.52685546875 -381.9535827636719 2
    vertex -386.2285766601562 -380.9664916992188 2
  endloop
endfacet
facet normal 0 0 1
  outer loop
    vertex -386.4311218261719 -378.931884765625 2
    vertex -386.2285766601562 -380.9664916992188 2
    vertex -386.1959228515625 -379.9358520507812 2
  endloop
endfacet
facet normal -0.472317636013031 0.8814284205436707 0
  outer loop
    vertex -392.4306335449219 -377.1188049316406 2
    vertex -391.521728515625 -376.6317749023438 0
    vertex -392.4306335449219 -377.1188049316406 0
  endloop
endfacet
facet normal -0.472317636013031 0.8814284205436707 0
  outer loop
    vertex -391.521728515625 -376.6317749023438 0
    vertex -392.4306335449219 -377.1188049316406 2
    vertex -391.521728515625 -376.6317749023438 2
  endloop
endfacet
facet normal 0.5271806120872498 0.8497532606124878 0
  outer loop
    vertex -388.5000610351562 -376.7275390625 2
    vertex -387.6238098144531 -377.2711181640625 0
    vertex -388.5000610351562 -376.7275390625 0
  endloop
endfacet
facet normal 0.5271806120872498 0.8497532606124878 0
  outer loop
    vertex -387.6238098144531 -377.2711181640625 0
    vertex -388.5000610351562 -376.7275390625 2
    vertex -387.6238098144531 -377.2711181640625 2
  endloop
endfacet
facet normal -0.999498188495636 0.03167513757944107 0
  outer loop
    vertex -394.0243835449219 -379.6877746582031 2
    vertex -394.0570678710938 -380.7184143066406 0
    vertex -394.0570678710938 -380.7184143066406 2
  endloop
endfacet
facet normal -0.999498188495636 0.03167513757944107 0
  outer loop
    vertex -394.0570678710938 -380.7184143066406 0
    vertex -394.0243835449219 -379.6877746582031 2
    vertex -394.0243835449219 -379.6877746582031 0
  endloop
endfacet
facet normal -0.8497532606124878 0.5271806120872498 0
  outer loop
    vertex -393.1824951171875 -377.824462890625 2
    vertex -393.7261047363281 -378.7007141113281 0
    vertex -393.7261047363281 -378.7007141113281 2
  endloop
endfacet
facet normal -0.8497532606124878 0.5271806120872498 0
  outer loop
    vertex -393.7261047363281 -378.7007141113281 0
    vertex -393.1824951171875 -377.824462890625 2
    vertex -393.1824951171875 -377.824462890625 0
  endloop
endfacet
facet normal -0.03167513757944107 -0.999498188495636 -0
  outer loop
    vertex -389.7351989746094 -384.2577209472656 2
    vertex -390.7658386230469 -384.2250366210938 0
    vertex -389.7351989746094 -384.2577209472656 0
  endloop
endfacet
facet normal -0.03167513757944107 -0.999498188495636 -0
  outer loop
    vertex -390.7658386230469 -384.2250366210938 0
    vertex -389.7351989746094 -384.2577209472656 2
    vertex -390.7658386230469 -384.2250366210938 2
  endloop
endfacet
facet normal -0.9736392498016357 -0.2280933409929276 -0
  outer loop
    vertex -394.0570678710938 -380.7184143066406 2
    vertex -393.8218688964844 -381.7223815917969 0
    vertex -393.8218688964844 -381.7223815917969 2
  endloop
endfacet
facet normal -0.9736392498016357 -0.2280933409929276 -0
  outer loop
    vertex -393.8218688964844 -381.7223815917969 0
    vertex -394.0570678710938 -380.7184143066406 2
    vertex -394.0570678710938 -380.7184143066406 0
  endloop
endfacet
facet normal 0.472317636013031 -0.8814284205436707 0
  outer loop
    vertex -387.8223571777344 -383.5354919433594 2
    vertex -388.7312316894531 -384.0225219726562 0
    vertex -387.8223571777344 -383.5354919433594 0
  endloop
endfacet
facet normal 0.472317636013031 -0.8814284205436707 0
  outer loop
    vertex -388.7312316894531 -384.0225219726562 0
    vertex -387.8223571777344 -383.5354919433594 2
    vertex -388.7312316894531 -384.0225219726562 2
  endloop
endfacet
facet normal 0.8814284205436707 0.472317636013031 0
  outer loop
    vertex -386.9181518554688 -378.0230102539062 0
    vertex -386.4311218261719 -378.931884765625 2
    vertex -386.4311218261719 -378.931884765625 0
  endloop
endfacet
facet normal 0.8814284205436707 0.472317636013031 0
  outer loop
    vertex -386.4311218261719 -378.931884765625 2
    vertex -386.9181518554688 -378.0230102539062 0
    vertex -386.9181518554688 -378.0230102539062 2
  endloop
endfacet
facet normal 0.7291496992111206 0.6843542456626892 0
  outer loop
    vertex -387.6238098144531 -377.2711181640625 0
    vertex -386.9181518554688 -378.0230102539062 2
    vertex -386.9181518554688 -378.0230102539062 0
  endloop
endfacet
facet normal 0.7291496992111206 0.6843542456626892 0
  outer loop
    vertex -386.9181518554688 -378.0230102539062 2
    vertex -387.6238098144531 -377.2711181640625 0
    vertex -387.6238098144531 -377.2711181640625 2
  endloop
endfacet
facet normal -0.7291496992111206 -0.6843542456626892 -0
  outer loop
    vertex -393.3348083496094 -382.6312866210938 2
    vertex -392.629150390625 -383.3831481933594 0
    vertex -392.629150390625 -383.3831481933594 2
  endloop
endfacet
facet normal -0.7291496992111206 -0.6843542456626892 -0
  outer loop
    vertex -392.629150390625 -383.3831481933594 0
    vertex -393.3348083496094 -382.6312866210938 2
    vertex -393.3348083496094 -382.6312866210938 0
  endloop
endfacet
facet normal 0.8497532606124878 -0.5271806120872498 0
  outer loop
    vertex -386.52685546875 -381.9535827636719 0
    vertex -387.0704650878906 -382.8298034667969 2
    vertex -387.0704650878906 -382.8298034667969 0
  endloop
endfacet
facet normal 0.8497532606124878 -0.5271806120872498 0
  outer loop
    vertex -387.0704650878906 -382.8298034667969 2
    vertex -386.52685546875 -381.9535827636719 0
    vertex -386.52685546875 -381.9535827636719 2
  endloop
endfacet
facet normal -0.6843542456626892 0.7291496992111206 0
  outer loop
    vertex -393.1824951171875 -377.824462890625 2
    vertex -392.4306335449219 -377.1188049316406 0
    vertex -393.1824951171875 -377.824462890625 0
  endloop
endfacet
facet normal -0.6843542456626892 0.7291496992111206 0
  outer loop
    vertex -392.4306335449219 -377.1188049316406 0
    vertex -393.1824951171875 -377.824462890625 2
    vertex -392.4306335449219 -377.1188049316406 2
  endloop
endfacet
facet normal -0.2892850041389465 -0.957243025302887 -0
  outer loop
    vertex -390.7658386230469 -384.2250366210938 2
    vertex -391.7529296875 -383.9267578125 0
    vertex -390.7658386230469 -384.2250366210938 0
  endloop
endfacet
facet normal -0.2892850041389465 -0.957243025302887 -0
  outer loop
    vertex -391.7529296875 -383.9267578125 0
    vertex -390.7658386230469 -384.2250366210938 2
    vertex -391.7529296875 -383.9267578125 2
  endloop
endfacet
facet normal 0.2892850041389465 0.957243025302887 0
  outer loop
    vertex -389.4871215820312 -376.4292297363281 2
    vertex -388.5000610351562 -376.7275390625 0
    vertex -389.4871215820312 -376.4292297363281 0
  endloop
endfacet
facet normal 0.2892850041389465 0.957243025302887 0
  outer loop
    vertex -388.5000610351562 -376.7275390625 0
    vertex -389.4871215820312 -376.4292297363281 2
    vertex -388.5000610351562 -376.7275390625 2
  endloop
endfacet
facet normal -0.957243025302887 0.2892850041389465 0
  outer loop
    vertex -393.7261047363281 -378.7007141113281 2
    vertex -394.0243835449219 -379.6877746582031 0
    vertex -394.0243835449219 -379.6877746582031 2
  endloop
endfacet
facet normal -0.957243025302887 0.2892850041389465 0
  outer loop
    vertex -394.0243835449219 -379.6877746582031 0
    vertex -393.7261047363281 -378.7007141113281 2
    vertex -393.7261047363281 -378.7007141113281 0
  endloop
endfacet
facet normal 0.999498188495636 -0.03167513757944107 0
  outer loop
    vertex -386.1959228515625 -379.9358520507812 0
    vertex -386.2285766601562 -380.9664916992188 2
    vertex -386.2285766601562 -380.9664916992188 0
  endloop
endfacet
facet normal 0.999498188495636 -0.03167513757944107 0
  outer loop
    vertex -386.2285766601562 -380.9664916992188 2
    vertex -386.1959228515625 -379.9358520507812 0
    vertex -386.1959228515625 -379.9358520507812 2
  endloop
endfacet
facet normal 0.6843542456626892 -0.7291496992111206 0
  outer loop
    vertex -387.0704650878906 -382.8298034667969 2
    vertex -387.8223571777344 -383.5354919433594 0
    vertex -387.0704650878906 -382.8298034667969 0
  endloop
endfacet
facet normal 0.6843542456626892 -0.7291496992111206 0
  outer loop
    vertex -387.8223571777344 -383.5354919433594 0
    vertex -387.0704650878906 -382.8298034667969 2
    vertex -387.8223571777344 -383.5354919433594 2
  endloop
endfacet
facet normal -0.8814284205436707 -0.472317636013031 -0
  outer loop
    vertex -393.8218688964844 -381.7223815917969 2
    vertex -393.3348083496094 -382.6312866210938 0
    vertex -393.3348083496094 -382.6312866210938 2
  endloop
endfacet
facet normal -0.8814284205436707 -0.472317636013031 -0
  outer loop
    vertex -393.3348083496094 -382.6312866210938 0
    vertex -393.8218688964844 -381.7223815917969 2
    vertex -393.8218688964844 -381.7223815917969 0
  endloop
endfacet
facet normal -0.5271806120872498 -0.8497532606124878 -0
  outer loop
    vertex -391.7529296875 -383.9267578125 2
    vertex -392.629150390625 -383.3831481933594 0
    vertex -391.7529296875 -383.9267578125 0
  endloop
endfacet
facet normal -0.5271806120872498 -0.8497532606124878 -0
  outer loop
    vertex -392.629150390625 -383.3831481933594 0
    vertex -391.7529296875 -383.9267578125 2
    vertex -392.629150390625 -383.3831481933594 2
  endloop
endfacet
facet normal 0.2280933409929276 -0.9736392498016357 0
  outer loop
    vertex -388.7312316894531 -384.0225219726562 2
    vertex -389.7351989746094 -384.2577209472656 0
    vertex -388.7312316894531 -384.0225219726562 0
  endloop
endfacet
facet normal 0.2280933409929276 -0.9736392498016357 0
  outer loop
    vertex -389.7351989746094 -384.2577209472656 0
    vertex -388.7312316894531 -384.0225219726562 2
    vertex -389.7351989746094 -384.2577209472656 2
  endloop
endfacet
facet normal 0.957243025302887 -0.2892850041389465 0
  outer loop
    vertex -386.2285766601562 -380.9664916992188 0
    vertex -386.52685546875 -381.9535827636719 2
    vertex -386.52685546875 -381.9535827636719 0
  endloop
endfacet
facet normal 0.957243025302887 -0.2892850041389465 0
  outer loop
    vertex -386.52685546875 -381.9535827636719 2
    vertex -386.2285766601562 -380.9664916992188 0
    vertex -386.2285766601562 -380.9664916992188 2
  endloop
endfacet
facet normal 0.9736392498016357 0.2280933409929276 0
  outer loop
    vertex -386.4311218261719 -378.931884765625 0
    vertex -386.1959228515625 -379.9358520507812 2
    vertex -386.1959228515625 -379.9358520507812 0
  endloop
endfacet
facet normal 0.9736392498016357 0.2280933409929276 0
  outer loop
    vertex -386.1959228515625 -379.9358520507812 2
    vertex -386.4311218261719 -378.931884765625 0
    vertex -386.4311218261719 -378.931884765625 2
  endloop
endfacet
facet normal -0.7291496992111206 -0.6843542456626892 -0
  outer loop
    vertex -388.8593139648438 -378.77978515625 2
    vertex -388.5020141601562 -379.1604919433594 7.049916100490626e-16
    vertex -388.5020141601562 -379.1604919433594 2
  endloop
endfacet
facet normal -0.7291496992111206 -0.6843542456626892 -0
  outer loop
    vertex -388.5020141601562 -379.1604919433594 7.049916100490626e-16
    vertex -388.8593139648438 -378.77978515625 2
    vertex -388.8593139648438 -378.77978515625 7.049916100490626e-16
  endloop
endfacet
facet normal -0.2892850041389465 -0.957243025302887 -0
  outer loop
    vertex -389.302978515625 -378.5045471191406 2
    vertex -389.8027648925781 -378.353515625 7.049916100490626e-16
    vertex -389.302978515625 -378.5045471191406 7.049916100490626e-16
  endloop
endfacet
facet normal -0.2892850041389465 -0.957243025302887 -0
  outer loop
    vertex -389.8027648925781 -378.353515625 7.049916100490626e-16
    vertex -389.302978515625 -378.5045471191406 2
    vertex -389.8027648925781 -378.353515625 2
  endloop
endfacet
facet normal 0.2280933409929276 -0.9736392498016357 0
  outer loop
    vertex -390.3245849609375 -378.3369750976562 2
    vertex -390.8329467773438 -378.4560546875 7.049916100490626e-16
    vertex -390.3245849609375 -378.3369750976562 7.049916100490626e-16
  endloop
endfacet
facet normal 0.2280933409929276 -0.9736392498016357 0
  outer loop
    vertex -390.8329467773438 -378.4560546875 7.049916100490626e-16
    vertex -390.3245849609375 -378.3369750976562 2
    vertex -390.8329467773438 -378.4560546875 2
  endloop
endfacet
facet normal 0.472317636013031 -0.8814284205436707 0
  outer loop
    vertex -390.8329467773438 -378.4560546875 2
    vertex -391.2931213378906 -378.7026672363281 7.049916100490626e-16
    vertex -390.8329467773438 -378.4560546875 7.049916100490626e-16
  endloop
endfacet
facet normal 0.472317636013031 -0.8814284205436707 0
  outer loop
    vertex -391.2931213378906 -378.7026672363281 7.049916100490626e-16
    vertex -390.8329467773438 -378.4560546875 2
    vertex -391.2931213378906 -378.7026672363281 2
  endloop
endfacet
facet normal 0.6843542456626892 -0.7291496992111206 0
  outer loop
    vertex -391.2931213378906 -378.7026672363281 2
    vertex -391.673828125 -379.0599670410156 7.049916100490626e-16
    vertex -391.2931213378906 -378.7026672363281 7.049916100490626e-16
  endloop
endfacet
facet normal 0.6843542456626892 -0.7291496992111206 0
  outer loop
    vertex -391.673828125 -379.0599670410156 7.049916100490626e-16
    vertex -391.2931213378906 -378.7026672363281 2
    vertex -391.673828125 -379.0599670410156 2
  endloop
endfacet
facet normal -0.03167513757944107 -0.999498188495636 -0
  outer loop
    vertex -389.8027648925781 -378.353515625 2
    vertex -390.3245849609375 -378.3369750976562 7.049916100490626e-16
    vertex -389.8027648925781 -378.353515625 7.049916100490626e-16
  endloop
endfacet
facet normal -0.03167513757944107 -0.999498188495636 -0
  outer loop
    vertex -390.3245849609375 -378.3369750976562 7.049916100490626e-16
    vertex -389.8027648925781 -378.353515625 2
    vertex -390.3245849609375 -378.3369750976562 2
  endloop
endfacet
facet normal 0.8497532606124878 -0.5271806120872498 0
  outer loop
    vertex -391.673828125 -379.0599670410156 7.049916100490626e-16
    vertex -391.9490661621094 -379.5036315917969 2
    vertex -391.9490661621094 -379.5036315917969 7.049916100490626e-16
  endloop
endfacet
facet normal 0.8497532606124878 -0.5271806120872498 0
  outer loop
    vertex -391.9490661621094 -379.5036315917969 2
    vertex -391.673828125 -379.0599670410156 7.049916100490626e-16
    vertex -391.673828125 -379.0599670410156 2
  endloop
endfacet
facet normal 0.957243025302887 -0.2892850041389465 0
  outer loop
    vertex -391.9490661621094 -379.5036315917969 7.049916100490626e-16
    vertex -392.10009765625 -380.00341796875 2
    vertex -392.10009765625 -380.00341796875 7.049916100490626e-16
  endloop
endfacet
facet normal 0.957243025302887 -0.2892850041389465 0
  outer loop
    vertex -392.10009765625 -380.00341796875 2
    vertex -391.9490661621094 -379.5036315917969 7.049916100490626e-16
    vertex -391.9490661621094 -379.5036315917969 2
  endloop
endfacet
facet normal -0.5271806120872498 -0.8497532606124878 -0
  outer loop
    vertex -388.8593139648438 -378.77978515625 2
    vertex -389.302978515625 -378.5045471191406 7.049916100490626e-16
    vertex -388.8593139648438 -378.77978515625 7.049916100490626e-16
  endloop
endfacet
facet normal -0.5271806120872498 -0.8497532606124878 -0
  outer loop
    vertex -389.302978515625 -378.5045471191406 7.049916100490626e-16
    vertex -388.8593139648438 -378.77978515625 2
    vertex -389.302978515625 -378.5045471191406 2
  endloop
endfacet
facet normal 0.999498188495636 -0.03167513757944107 0
  outer loop
    vertex -392.10009765625 -380.00341796875 7.049916100490626e-16
    vertex -392.1166381835938 -380.5252380371094 2
    vertex -392.1166381835938 -380.5252380371094 7.049916100490626e-16
  endloop
endfacet
facet normal 0.999498188495636 -0.03167513757944107 0
  outer loop
    vertex -392.1166381835938 -380.5252380371094 2
    vertex -392.10009765625 -380.00341796875 7.049916100490626e-16
    vertex -392.10009765625 -380.00341796875 2
  endloop
endfacet
facet normal 0.9736392498016357 0.2280933409929276 0
  outer loop
    vertex -392.1166381835938 -380.5252380371094 7.049916100490626e-16
    vertex -391.99755859375 -381.0335998535156 2
    vertex -391.99755859375 -381.0335998535156 7.049916100490626e-16
  endloop
endfacet
facet normal 0.9736392498016357 0.2280933409929276 0
  outer loop
    vertex -391.99755859375 -381.0335998535156 2
    vertex -392.1166381835938 -380.5252380371094 7.049916100490626e-16
    vertex -392.1166381835938 -380.5252380371094 2
  endloop
endfacet
facet normal -0.8814284205436707 -0.472317636013031 -0
  outer loop
    vertex -388.5020141601562 -379.1604919433594 2
    vertex -388.2554016113281 -379.6206970214844 7.049916100490626e-16
    vertex -388.2554016113281 -379.6206970214844 2
  endloop
endfacet
facet normal -0.8814284205436707 -0.472317636013031 -0
  outer loop
    vertex -388.2554016113281 -379.6206970214844 7.049916100490626e-16
    vertex -388.5020141601562 -379.1604919433594 2
    vertex -388.5020141601562 -379.1604919433594 7.049916100490626e-16
  endloop
endfacet
facet normal 0.8814284205436707 0.472317636013031 0
  outer loop
    vertex -391.99755859375 -381.0335998535156 7.049916100490626e-16
    vertex -391.7509460449219 -381.4938049316406 2
    vertex -391.7509460449219 -381.4938049316406 7.049916100490626e-16
  endloop
endfacet
facet normal 0.8814284205436707 0.472317636013031 0
  outer loop
    vertex -391.7509460449219 -381.4938049316406 2
    vertex -391.99755859375 -381.0335998535156 7.049916100490626e-16
    vertex -391.99755859375 -381.0335998535156 2
  endloop
endfacet
facet normal -0.9736392498016357 -0.2280933409929276 -0
  outer loop
    vertex -388.2554016113281 -379.6206970214844 2
    vertex -388.1363220214844 -380.1290283203125 7.049916100490626e-16
    vertex -388.1363220214844 -380.1290283203125 2
  endloop
endfacet
facet normal -0.9736392498016357 -0.2280933409929276 -0
  outer loop
    vertex -388.1363220214844 -380.1290283203125 7.049916100490626e-16
    vertex -388.2554016113281 -379.6206970214844 2
    vertex -388.2554016113281 -379.6206970214844 7.049916100490626e-16
  endloop
endfacet
facet normal -0.6843542456626892 0.7291496992111206 0
  outer loop
    vertex -388.9598388671875 -381.9516296386719 2
    vertex -388.5791320800781 -381.5942993164062 7.049916100490626e-16
    vertex -388.9598388671875 -381.9516296386719 7.049916100490626e-16
  endloop
endfacet
facet normal -0.6843542456626892 0.7291496992111206 0
  outer loop
    vertex -388.5791320800781 -381.5942993164062 7.049916100490626e-16
    vertex -388.9598388671875 -381.9516296386719 2
    vertex -388.5791320800781 -381.5942993164062 2
  endloop
endfacet
facet normal -0.2280933409929276 0.9736392498016357 0
  outer loop
    vertex -389.9283752441406 -382.3172912597656 2
    vertex -389.4200134277344 -382.1982116699219 7.049916100490626e-16
    vertex -389.9283752441406 -382.3172912597656 7.049916100490626e-16
  endloop
endfacet
facet normal -0.2280933409929276 0.9736392498016357 0
  outer loop
    vertex -389.4200134277344 -382.1982116699219 7.049916100490626e-16
    vertex -389.9283752441406 -382.3172912597656 2
    vertex -389.4200134277344 -382.1982116699219 2
  endloop
endfacet
facet normal 0.7291496992111206 0.6843542456626892 0
  outer loop
    vertex -391.7509460449219 -381.4938049316406 7.049916100490626e-16
    vertex -391.3936462402344 -381.8744812011719 2
    vertex -391.3936462402344 -381.8744812011719 7.049916100490626e-16
  endloop
endfacet
facet normal 0.7291496992111206 0.6843542456626892 0
  outer loop
    vertex -391.3936462402344 -381.8744812011719 2
    vertex -391.7509460449219 -381.4938049316406 7.049916100490626e-16
    vertex -391.7509460449219 -381.4938049316406 2
  endloop
endfacet
facet normal -0.999498188495636 0.03167513757944107 0
  outer loop
    vertex -388.1363220214844 -380.1290283203125 2
    vertex -388.1528625488281 -380.65087890625 7.049916100490626e-16
    vertex -388.1528625488281 -380.65087890625 2
  endloop
endfacet
facet normal -0.999498188495636 0.03167513757944107 0
  outer loop
    vertex -388.1528625488281 -380.65087890625 7.049916100490626e-16
    vertex -388.1363220214844 -380.1290283203125 2
    vertex -388.1363220214844 -380.1290283203125 7.049916100490626e-16
  endloop
endfacet
facet normal -0.957243025302887 0.2892850041389465 0
  outer loop
    vertex -388.1528625488281 -380.65087890625 2
    vertex -388.3038940429688 -381.1506652832031 7.049916100490626e-16
    vertex -388.3038940429688 -381.1506652832031 2
  endloop
endfacet
facet normal -0.957243025302887 0.2892850041389465 0
  outer loop
    vertex -388.3038940429688 -381.1506652832031 7.049916100490626e-16
    vertex -388.1528625488281 -380.65087890625 2
    vertex -388.1528625488281 -380.65087890625 7.049916100490626e-16
  endloop
endfacet
facet normal -0.8497532606124878 0.5271806120872498 0
  outer loop
    vertex -388.3038940429688 -381.1506652832031 2
    vertex -388.5791320800781 -381.5942993164062 7.049916100490626e-16
    vertex -388.5791320800781 -381.5942993164062 2
  endloop
endfacet
facet normal -0.8497532606124878 0.5271806120872498 0
  outer loop
    vertex -388.5791320800781 -381.5942993164062 7.049916100490626e-16
    vertex -388.3038940429688 -381.1506652832031 2
    vertex -388.3038940429688 -381.1506652832031 7.049916100490626e-16
  endloop
endfacet
facet normal 0.03167513757944107 0.999498188495636 0
  outer loop
    vertex -390.4502258300781 -382.3007507324219 2
    vertex -389.9283752441406 -382.3172912597656 7.049916100490626e-16
    vertex -390.4502258300781 -382.3007507324219 7.049916100490626e-16
  endloop
endfacet
facet normal 0.03167513757944107 0.999498188495636 0
  outer loop
    vertex -389.9283752441406 -382.3172912597656 7.049916100490626e-16
    vertex -390.4502258300781 -382.3007507324219 2
    vertex -389.9283752441406 -382.3172912597656 2
  endloop
endfacet
facet normal 0.5271806120872498 0.8497532606124878 0
  outer loop
    vertex -391.3936462402344 -381.8744812011719 2
    vertex -390.9499816894531 -382.1497192382812 7.049916100490626e-16
    vertex -391.3936462402344 -381.8744812011719 7.049916100490626e-16
  endloop
endfacet
facet normal 0.5271806120872498 0.8497532606124878 0
  outer loop
    vertex -390.9499816894531 -382.1497192382812 7.049916100490626e-16
    vertex -391.3936462402344 -381.8744812011719 2
    vertex -390.9499816894531 -382.1497192382812 2
  endloop
endfacet
facet normal 0.2892850041389465 0.957243025302887 0
  outer loop
    vertex -390.9499816894531 -382.1497192382812 2
    vertex -390.4502258300781 -382.3007507324219 7.049916100490626e-16
    vertex -390.9499816894531 -382.1497192382812 7.049916100490626e-16
  endloop
endfacet
facet normal 0.2892850041389465 0.957243025302887 0
  outer loop
    vertex -390.4502258300781 -382.3007507324219 7.049916100490626e-16
    vertex -390.9499816894531 -382.1497192382812 2
    vertex -390.4502258300781 -382.3007507324219 2
  endloop
endfacet
facet normal -0.472317636013031 0.8814284205436707 0
  outer loop
    vertex -389.4200134277344 -382.1982116699219 2
    vertex -388.9598388671875 -381.9516296386719 7.049916100490626e-16
    vertex -389.4200134277344 -382.1982116699219 7.049916100490626e-16
  endloop
endfacet
facet normal -0.472317636013031 0.8814284205436707 0
  outer loop
    vertex -388.9598388671875 -381.9516296386719 7.049916100490626e-16
    vertex -389.4200134277344 -382.1982116699219 2
    vertex -388.9598388671875 -381.9516296386719 2
  endloop
endfacet
facet normal 0 0 -1
  outer loop
    vertex -392.4306335449219 -377.1188049316406 0
    vertex -392.10009765625 -380.00341796875 7.049916100490626e-16
    vertex -392.1166381835938 -380.5252380371094 7.049916100490626e-16
  endloop
endfacet
facet normal 0 0 -1
  outer loop
    vertex -392.10009765625 -380.00341796875 7.049916100490626e-16
    vertex -392.4306335449219 -377.1188049316406 0
    vertex -391.521728515625 -376.6317749023438 0
  endloop
endfacet
facet normal 0 0 -1
  outer loop
    vertex -392.10009765625 -380.00341796875 7.049916100490626e-16
    vertex -391.521728515625 -376.6317749023438 0
    vertex -391.9490661621094 -379.5036315917969 7.049916100490626e-16
  endloop
endfacet
facet normal 0 0 -1
  outer loop
    vertex -391.9490661621094 -379.5036315917969 7.049916100490626e-16
    vertex -391.521728515625 -376.6317749023438 0
    vertex -391.673828125 -379.0599670410156 7.049916100490626e-16
  endloop
endfacet
facet normal 0 0 -1
  outer loop
    vertex -391.673828125 -379.0599670410156 7.049916100490626e-16
    vertex -391.521728515625 -376.6317749023438 0
    vertex -391.2931213378906 -378.7026672363281 7.049916100490626e-16
  endloop
endfacet
facet normal 0 0 -1
  outer loop
    vertex -391.2931213378906 -378.7026672363281 7.049916100490626e-16
    vertex -391.521728515625 -376.6317749023438 0
    vertex -390.5177612304688 -376.3965759277344 0
  endloop
endfacet
facet normal 0 0 -1
  outer loop
    vertex -391.2931213378906 -378.7026672363281 7.049916100490626e-16
    vertex -390.5177612304688 -376.3965759277344 0
    vertex -390.8329467773438 -378.4560546875 7.049916100490626e-16
  endloop
endfacet
facet normal 0 0 -1
  outer loop
    vertex -390.8329467773438 -378.4560546875 7.049916100490626e-16
    vertex -390.5177612304688 -376.3965759277344 0
    vertex -390.3245849609375 -378.3369750976562 7.049916100490626e-16
  endloop
endfacet
facet normal 0 0 -1
  outer loop
    vertex -390.3245849609375 -378.3369750976562 7.049916100490626e-16
    vertex -390.5177612304688 -376.3965759277344 0
    vertex -389.4871215820312 -376.4292297363281 0
  endloop
endfacet
facet normal 0 0 -1
  outer loop
    vertex -390.3245849609375 -378.3369750976562 7.049916100490626e-16
    vertex -389.4871215820312 -376.4292297363281 0
    vertex -389.8027648925781 -378.353515625 7.049916100490626e-16
  endloop
endfacet
facet normal 0 0 -1
  outer loop
    vertex -389.8027648925781 -378.353515625 7.049916100490626e-16
    vertex -389.4871215820312 -376.4292297363281 0
    vertex -389.302978515625 -378.5045471191406 7.049916100490626e-16
  endloop
endfacet
facet normal 0 0 -1
  outer loop
    vertex -389.302978515625 -378.5045471191406 7.049916100490626e-16
    vertex -389.4871215820312 -376.4292297363281 0
    vertex -388.5000610351562 -376.7275390625 0
  endloop
endfacet
facet normal 0 0 -1
  outer loop
    vertex -389.302978515625 -378.5045471191406 7.049916100490626e-16
    vertex -388.5000610351562 -376.7275390625 0
    vertex -388.8593139648438 -378.77978515625 7.049916100490626e-16
  endloop
endfacet
facet normal 0 0 -1
  outer loop
    vertex -388.8593139648438 -378.77978515625 7.049916100490626e-16
    vertex -388.5000610351562 -376.7275390625 0
    vertex -388.5020141601562 -379.1604919433594 7.049916100490626e-16
  endloop
endfacet
facet normal 0 0 -1
  outer loop
    vertex -388.5020141601562 -379.1604919433594 7.049916100490626e-16
    vertex -388.5000610351562 -376.7275390625 0
    vertex -388.2554016113281 -379.6206970214844 7.049916100490626e-16
  endloop
endfacet
facet normal 0 0 -1
  outer loop
    vertex -388.2554016113281 -379.6206970214844 7.049916100490626e-16
    vertex -388.5000610351562 -376.7275390625 0
    vertex -387.6238098144531 -377.2711181640625 0
  endloop
endfacet
facet normal 0 0 -1
  outer loop
    vertex -388.2554016113281 -379.6206970214844 7.049916100490626e-16
    vertex -387.6238098144531 -377.2711181640625 0
    vertex -388.1363220214844 -380.1290283203125 7.049916100490626e-16
  endloop
endfacet
facet normal 0 0 -1
  outer loop
    vertex -388.1363220214844 -380.1290283203125 7.049916100490626e-16
    vertex -387.6238098144531 -377.2711181640625 0
    vertex -387.8223571777344 -383.5354919433594 0
  endloop
endfacet
facet normal 0 0 -1
  outer loop
    vertex -387.8223571777344 -383.5354919433594 0
    vertex -387.6238098144531 -377.2711181640625 0
    vertex -387.0704650878906 -382.8298034667969 0
  endloop
endfacet
facet normal 0 0 -1
  outer loop
    vertex -387.0704650878906 -382.8298034667969 0
    vertex -387.6238098144531 -377.2711181640625 0
    vertex -386.9181518554688 -378.0230102539062 0
  endloop
endfacet
facet normal 0 0 -1
  outer loop
    vertex -387.0704650878906 -382.8298034667969 0
    vertex -386.9181518554688 -378.0230102539062 0
    vertex -386.52685546875 -381.9535827636719 0
  endloop
endfacet
facet normal 0 0 -1
  outer loop
    vertex -386.52685546875 -381.9535827636719 0
    vertex -386.9181518554688 -378.0230102539062 0
    vertex -386.4311218261719 -378.931884765625 0
  endloop
endfacet
facet normal 0 0 -1
  outer loop
    vertex -386.52685546875 -381.9535827636719 0
    vertex -386.4311218261719 -378.931884765625 0
    vertex -386.2285766601562 -380.9664916992188 0
  endloop
endfacet
facet normal 0 0 -1
  outer loop
    vertex -386.2285766601562 -380.9664916992188 0
    vertex -386.4311218261719 -378.931884765625 0
    vertex -386.1959228515625 -379.9358520507812 0
  endloop
endfacet
facet normal 0 0 -1
  outer loop
    vertex -394.0243835449219 -379.6877746582031 0
    vertex -393.8218688964844 -381.7223815917969 0
    vertex -394.0570678710938 -380.7184143066406 0
  endloop
endfacet
facet normal 0 0 -1
  outer loop
    vertex -393.8218688964844 -381.7223815917969 0
    vertex -394.0243835449219 -379.6877746582031 0
    vertex -393.7261047363281 -378.7007141113281 0
  endloop
endfacet
facet normal 0 0 -1
  outer loop
    vertex -393.8218688964844 -381.7223815917969 0
    vertex -393.7261047363281 -378.7007141113281 0
    vertex -393.3348083496094 -382.6312866210938 0
  endloop
endfacet
facet normal 0 0 -1
  outer loop
    vertex -393.3348083496094 -382.6312866210938 0
    vertex -393.7261047363281 -378.7007141113281 0
    vertex -393.1824951171875 -377.824462890625 0
  endloop
endfacet
facet normal 0 0 -1
  outer loop
    vertex -393.3348083496094 -382.6312866210938 0
    vertex -393.1824951171875 -377.824462890625 0
    vertex -392.629150390625 -383.3831481933594 0
  endloop
endfacet
facet normal 0 0 -1
  outer loop
    vertex -392.629150390625 -383.3831481933594 0
    vertex -393.1824951171875 -377.824462890625 0
    vertex -392.4306335449219 -377.1188049316406 0
  endloop
endfacet
facet normal 0 0 -1
  outer loop
    vertex -392.629150390625 -383.3831481933594 0
    vertex -392.4306335449219 -377.1188049316406 0
    vertex -392.1166381835938 -380.5252380371094 7.049916100490626e-16
  endloop
endfacet
facet normal 0 0 -1
  outer loop
    vertex -392.629150390625 -383.3831481933594 0
    vertex -392.1166381835938 -380.5252380371094 7.049916100490626e-16
    vertex -391.7529296875 -383.9267578125 0
  endloop
endfacet
facet normal 0 0 -1
  outer loop
    vertex -391.7529296875 -383.9267578125 0
    vertex -392.1166381835938 -380.5252380371094 7.049916100490626e-16
    vertex -391.99755859375 -381.0335998535156 7.049916100490626e-16
  endloop
endfacet
facet normal 0 0 -1
  outer loop
    vertex -391.7529296875 -383.9267578125 0
    vertex -391.99755859375 -381.0335998535156 7.049916100490626e-16
    vertex -391.7509460449219 -381.4938049316406 7.049916100490626e-16
  endloop
endfacet
facet normal 0 0 -1
  outer loop
    vertex -391.7529296875 -383.9267578125 0
    vertex -391.7509460449219 -381.4938049316406 7.049916100490626e-16
    vertex -390.7658386230469 -384.2250366210938 0
  endloop
endfacet
facet normal 0 0 -1
  outer loop
    vertex -390.7658386230469 -384.2250366210938 0
    vertex -391.7509460449219 -381.4938049316406 7.049916100490626e-16
    vertex -391.3936462402344 -381.8744812011719 7.049916100490626e-16
  endloop
endfacet
facet normal 0 0 -1
  outer loop
    vertex -390.7658386230469 -384.2250366210938 0
    vertex -391.3936462402344 -381.8744812011719 7.049916100490626e-16
    vertex -390.9499816894531 -382.1497192382812 7.049916100490626e-16
  endloop
endfacet
facet normal 0 0 -1
  outer loop
    vertex -390.7658386230469 -384.2250366210938 0
    vertex -390.9499816894531 -382.1497192382812 7.049916100490626e-16
    vertex -390.4502258300781 -382.3007507324219 7.049916100490626e-16
  endloop
endfacet
facet normal 0 0 -1
  outer loop
    vertex -390.7658386230469 -384.2250366210938 0
    vertex -390.4502258300781 -382.3007507324219 7.049916100490626e-16
    vertex -389.7351989746094 -384.2577209472656 0
  endloop
endfacet
facet normal 0 0 -1
  outer loop
    vertex -389.7351989746094 -384.2577209472656 0
    vertex -390.4502258300781 -382.3007507324219 7.049916100490626e-16
    vertex -389.9283752441406 -382.3172912597656 7.049916100490626e-16
  endloop
endfacet
facet normal 0 0 -1
  outer loop
    vertex -389.7351989746094 -384.2577209472656 0
    vertex -389.9283752441406 -382.3172912597656 7.049916100490626e-16
    vertex -389.4200134277344 -382.1982116699219 7.049916100490626e-16
  endloop
endfacet
facet normal 0 0 -1
  outer loop
    vertex -389.7351989746094 -384.2577209472656 0
    vertex -389.4200134277344 -382.1982116699219 7.049916100490626e-16
    vertex -388.7312316894531 -384.0225219726562 0
  endloop
endfacet
facet normal 0 0 -1
  outer loop
    vertex -388.7312316894531 -384.0225219726562 0
    vertex -389.4200134277344 -382.1982116699219 7.049916100490626e-16
    vertex -388.9598388671875 -381.9516296386719 7.049916100490626e-16
  endloop
endfacet
facet normal 0 0 -1
  outer loop
    vertex -388.7312316894531 -384.0225219726562 0
    vertex -388.9598388671875 -381.9516296386719 7.049916100490626e-16
    vertex -388.5791320800781 -381.5942993164062 7.049916100490626e-16
  endloop
endfacet
facet normal 0 0 -1
  outer loop
    vertex -388.7312316894531 -384.0225219726562 0
    vertex -388.5791320800781 -381.5942993164062 7.049916100490626e-16
    vertex -387.8223571777344 -383.5354919433594 0
  endloop
endfacet
facet normal 0 0 -1
  outer loop
    vertex -387.8223571777344 -383.5354919433594 0
    vertex -388.5791320800781 -381.5942993164062 7.049916100490626e-16
    vertex -388.3038940429688 -381.1506652832031 7.049916100490626e-16
  endloop
endfacet
facet normal 0 0 -1
  outer loop
    vertex -387.8223571777344 -383.5354919433594 0
    vertex -388.3038940429688 -381.1506652832031 7.049916100490626e-16
    vertex -388.1528625488281 -380.65087890625 7.049916100490626e-16
  endloop
endfacet
facet normal 0 0 -1
  outer loop
    vertex -387.8223571777344 -383.5354919433594 0
    vertex -388.1528625488281 -380.65087890625 7.049916100490626e-16
    vertex -388.1363220214844 -380.1290283203125 7.049916100490626e-16
  endloop
endfacet
endsolid 2515
