solid EAF9
facet normal -0.03378266468644142 0.2566048204898834 0.9659258127212524
  outer loop
    vertex -355.3636169433594 -385.0721130371094 29.90785026550293
    vertex -353.5107116699219 -383.8235778808594 29.64096832275391
    vertex -355.4936218261719 -384.0846252441406 29.64096832275391
  endloop
endfacet
facet normal -0.03378266468644142 0.2566048204898834 0.9659258127212524
  outer loop
    vertex -353.5107116699219 -383.8235778808594 29.64096832275391
    vertex -355.3636169433594 -385.0721130371094 29.90785026550293
    vertex -353.3807067871094 -384.8110656738281 29.90785026550293
  endloop
endfacet
facet normal 0.1130390018224716 -0.8586164116859436 0.5
  outer loop
    vertex -352.8370971679688 -388.9403381347656 27.50324249267578
    vertex -354.8872680664062 -388.6902160644531 28.3962516784668
    vertex -354.8199768066406 -389.2013854980469 27.50324249267578
  endloop
endfacet
facet normal 0.1130390018224716 -0.8586164116859436 0.5
  outer loop
    vertex -354.8872680664062 -388.6902160644531 28.3962516784668
    vertex -352.8370971679688 -388.9403381347656 27.50324249267578
    vertex -352.9043884277344 -388.4291687011719 28.3962516784668
  endloop
endfacet
facet normal -0.1305261850357056 0.9914448857307434 -4.338181560942928e-14
  outer loop
    vertex -355.8074645996094 -381.7005920410156 26.50722312927246
    vertex -353.8245849609375 -381.4395141601562 25.47606468200684
    vertex -355.8074645996094 -381.7005920410156 25.47606468200684
  endloop
endfacet
facet normal -0.1305261850357056 0.9914448857307434 -4.338181560942928e-14
  outer loop
    vertex -353.8245849609375 -381.4395141601562 25.47606468200684
    vertex -355.8074645996094 -381.7005920410156 26.50722312927246
    vertex -353.8245849609375 -381.4395141601562 26.50722312927246
  endloop
endfacet
facet normal 0.1260786205530167 -0.9576622247695923 -0.258819043636322
  outer loop
    vertex -410.5730285644531 -394.7476196289062 25.74533843994141
    vertex -412.5725402832031 -394.8822631835938 25.26951026916504
    vertex -410.5896606445312 -394.6212158203125 25.26951026916504
  endloop
endfacet
facet normal 0.1260786205530167 -0.9576622247695923 -0.258819043636322
  outer loop
    vertex -412.5725402832031 -394.8822631835938 25.26951026916504
    vertex -410.5730285644531 -394.7476196289062 25.74533843994141
    vertex -412.555908203125 -395.0086669921875 25.74533843994141
  endloop
endfacet
facet normal 0.1130390018224716 -0.8586164116859436 -0.5
  outer loop
    vertex -410.5896606445312 -394.6212158203125 25.26951026916504
    vertex -412.6047058105469 -394.6380615234375 24.8428955078125
    vertex -410.621826171875 -394.3770141601562 24.8428955078125
  endloop
endfacet
facet normal 0.1130390018224716 -0.8586164116859436 -0.5
  outer loop
    vertex -412.6047058105469 -394.6380615234375 24.8428955078125
    vertex -410.5896606445312 -394.6212158203125 25.26951026916504
    vertex -412.5725402832031 -394.8822631835938 25.26951026916504
  endloop
endfacet
facet normal -0.1260786205530167 0.9576622247695923 -0.258819043636322
  outer loop
    vertex -355.8074645996094 -381.7005920410156 25.47606468200684
    vertex -353.7897644042969 -381.7041320800781 24.48004341125488
    vertex -355.7726440429688 -381.9651794433594 24.48004341125488
  endloop
endfacet
facet normal -0.1260786205530167 0.9576622247695923 -0.258819043636322
  outer loop
    vertex -353.7897644042969 -381.7041320800781 24.48004341125488
    vertex -355.8074645996094 -381.7005920410156 25.47606468200684
    vertex -353.8245849609375 -381.4395141601562 25.47606468200684
  endloop
endfacet
facet normal 0.03378266468644142 -0.2566048204898834 0.9659258127212524
  outer loop
    vertex -355.0989990234375 -387.0819396972656 29.64096832275391
    vertex -353.2461242675781 -385.8334045410156 29.90785026550293
    vertex -355.22900390625 -386.0944519042969 29.90785026550293
  endloop
endfacet
facet normal 0.03378266468644142 -0.2566048204898834 0.9659258127212524
  outer loop
    vertex -353.2461242675781 -385.8334045410156 29.90785026550293
    vertex -355.0989990234375 -387.0819396972656 29.64096832275391
    vertex -353.1161193847656 -386.8208923339844 29.64096832275391
  endloop
endfacet
facet normal 0.1305261850357056 -0.9914448857307434 4.338181560942928e-14
  outer loop
    vertex -352.80224609375 -389.2049255371094 25.47606468200684
    vertex -354.78515625 -389.4660034179688 26.50722312927246
    vertex -354.78515625 -389.4660034179688 25.47606468200684
  endloop
endfacet
facet normal 0.1305261850357056 -0.9914448857307434 4.338181560942928e-14
  outer loop
    vertex -354.78515625 -389.4660034179688 26.50722312927246
    vertex -352.80224609375 -389.2049255371094 25.47606468200684
    vertex -352.80224609375 -389.2049255371094 26.50722312927246
  endloop
endfacet
facet normal 0.1130390018224716 -0.8586164116859436 -0.5
  outer loop
    vertex -352.9043884277344 -388.4291687011719 23.5870361328125
    vertex -354.8199768066406 -389.2013854980469 24.48004341125488
    vertex -354.8872680664062 -388.6902160644531 23.5870361328125
  endloop
endfacet
facet normal 0.1130390018224716 -0.8586164116859436 -0.5
  outer loop
    vertex -354.8199768066406 -389.2013854980469 24.48004341125488
    vertex -352.9043884277344 -388.4291687011719 23.5870361328125
    vertex -352.8370971679688 -388.9403381347656 24.48004341125488
  endloop
endfacet
facet normal 0.1260786205530167 -0.9576622247695923 -0.258819043636322
  outer loop
    vertex -352.8370971679688 -388.9403381347656 24.48004341125488
    vertex -354.78515625 -389.4660034179688 25.47606468200684
    vertex -354.8199768066406 -389.2013854980469 24.48004341125488
  endloop
endfacet
facet normal 0.1260786205530167 -0.9576622247695923 -0.258819043636322
  outer loop
    vertex -354.78515625 -389.4660034179688 25.47606468200684
    vertex -352.8370971679688 -388.9403381347656 24.48004341125488
    vertex -352.80224609375 -389.2049255371094 25.47606468200684
  endloop
endfacet
facet normal -0.09229595214128494 0.7010573744773865 -0.7071067690849304
  outer loop
    vertex -353.7224426269531 -382.2153015136719 23.5870361328125
    vertex -355.6101684570312 -383.1992492675781 22.8578987121582
    vertex -355.7053527832031 -382.4763488769531 23.5870361328125
  endloop
endfacet
facet normal -0.09229595214128494 0.7010573744773865 -0.7071067690849304
  outer loop
    vertex -355.6101684570312 -383.1992492675781 22.8578987121582
    vertex -353.7224426269531 -382.2153015136719 23.5870361328125
    vertex -353.6272888183594 -382.9382019042969 22.8578987121582
  endloop
endfacet
facet normal -0.03378266468644142 0.2566048204898834 -0.9659258127212524
  outer loop
    vertex -353.5107116699219 -383.8235778808594 22.34231948852539
    vertex -355.3636169433594 -385.0721130371094 22.07543563842773
    vertex -355.4936218261719 -384.0846252441406 22.34231948852539
  endloop
endfacet
facet normal -0.03378266468644142 0.2566048204898834 -0.9659258127212524
  outer loop
    vertex -355.3636169433594 -385.0721130371094 22.07543563842773
    vertex -353.5107116699219 -383.8235778808594 22.34231948852539
    vertex -353.3807067871094 -384.8110656738281 22.07543563842773
  endloop
endfacet
facet normal 0.06526309251785278 -0.4957224428653717 0.8660253882408142
  outer loop
    vertex -354.9824523925781 -387.9673156738281 29.12538909912109
    vertex -353.1161193847656 -386.8208923339844 29.64096832275391
    vertex -355.0989990234375 -387.0819396972656 29.64096832275391
  endloop
endfacet
facet normal 0.06526309251785278 -0.4957224428653717 0.8660253882408142
  outer loop
    vertex -353.1161193847656 -386.8208923339844 29.64096832275391
    vertex -354.9824523925781 -387.9673156738281 29.12538909912109
    vertex -352.9995422363281 -387.7062683105469 29.12538909912109
  endloop
endfacet
facet normal -0.09229595214128494 0.7010573744773865 0.7071067690849304
  outer loop
    vertex -355.6101684570312 -383.1992492675781 29.12538909912109
    vertex -353.7224426269531 -382.2153015136719 28.3962516784668
    vertex -355.7053527832031 -382.4763488769531 28.3962516784668
  endloop
endfacet
facet normal -0.09229595214128494 0.7010573744773865 0.7071067690849304
  outer loop
    vertex -353.7224426269531 -382.2153015136719 28.3962516784668
    vertex -355.6101684570312 -383.1992492675781 29.12538909912109
    vertex -353.6272888183594 -382.9382019042969 29.12538909912109
  endloop
endfacet
facet normal 6.145665760011942e-15 -2.125777073087257e-14 -1
  outer loop
    vertex -353.3807067871094 -384.8110656738281 22.07543563842773
    vertex -355.22900390625 -386.0944519042969 22.07543563842773
    vertex -355.3636169433594 -385.0721130371094 22.07543563842773
  endloop
endfacet
facet normal 6.145665760011942e-15 -2.125777073087257e-14 -1
  outer loop
    vertex -355.22900390625 -386.0944519042969 22.07543563842773
    vertex -353.3807067871094 -384.8110656738281 22.07543563842773
    vertex -353.2461242675781 -385.8334045410156 22.07543563842773
  endloop
endfacet
facet normal 0.03378266468644142 -0.2566048204898834 -0.9659258127212524
  outer loop
    vertex -353.2461242675781 -385.8334045410156 22.07543563842773
    vertex -355.0989990234375 -387.0819396972656 22.34231948852539
    vertex -355.22900390625 -386.0944519042969 22.07543563842773
  endloop
endfacet
facet normal 0.03378266468644142 -0.2566048204898834 -0.9659258127212524
  outer loop
    vertex -355.0989990234375 -387.0819396972656 22.34231948852539
    vertex -353.2461242675781 -385.8334045410156 22.07543563842773
    vertex -353.1161193847656 -386.8208923339844 22.34231948852539
  endloop
endfacet
facet normal 0.09229595214128494 -0.7010573744773865 0.7071067690849304
  outer loop
    vertex -354.8872680664062 -388.6902160644531 28.3962516784668
    vertex -352.9995422363281 -387.7062683105469 29.12538909912109
    vertex -354.9824523925781 -387.9673156738281 29.12538909912109
  endloop
endfacet
facet normal 0.09229595214128494 -0.7010573744773865 0.7071067690849304
  outer loop
    vertex -352.9995422363281 -387.7062683105469 29.12538909912109
    vertex -354.8872680664062 -388.6902160644531 28.3962516784668
    vertex -352.9043884277344 -388.4291687011719 28.3962516784668
  endloop
endfacet
facet normal -0.06526309251785278 0.4957224428653717 0.8660253882408142
  outer loop
    vertex -355.4936218261719 -384.0846252441406 29.64096832275391
    vertex -353.6272888183594 -382.9382019042969 29.12538909912109
    vertex -355.6101684570312 -383.1992492675781 29.12538909912109
  endloop
endfacet
facet normal -0.06526309251785278 0.4957224428653717 0.8660253882408142
  outer loop
    vertex -353.6272888183594 -382.9382019042969 29.12538909912109
    vertex -355.4936218261719 -384.0846252441406 29.64096832275391
    vertex -353.5107116699219 -383.8235778808594 29.64096832275391
  endloop
endfacet
facet normal 0.09229595214128494 -0.7010573744773865 -0.7071067690849304
  outer loop
    vertex -410.6672668457031 -394.0316772460938 24.49456787109375
    vertex -412.6047058105469 -394.6380615234375 24.8428955078125
    vertex -412.6501770019531 -394.292724609375 24.49456787109375
  endloop
endfacet
facet normal 0.09229595214128494 -0.7010573744773865 -0.7071067690849304
  outer loop
    vertex -412.6047058105469 -394.6380615234375 24.8428955078125
    vertex -410.6672668457031 -394.0316772460938 24.49456787109375
    vertex -410.621826171875 -394.3770141601562 24.8428955078125
  endloop
endfacet
facet normal 0.03378266468644142 -0.2566048204898834 -0.9659258127212524
  outer loop
    vertex -410.7850646972656 -393.136962890625 24.12076377868652
    vertex -412.7058410644531 -393.8697509765625 24.24826049804688
    vertex -412.7679748535156 -393.3980102539062 24.12076377868652
  endloop
endfacet
facet normal 0.03378266468644142 -0.2566048204898834 -0.9659258127212524
  outer loop
    vertex -412.7058410644531 -393.8697509765625 24.24826049804688
    vertex -410.7850646972656 -393.136962890625 24.12076377868652
    vertex -410.7229614257812 -393.6087036132812 24.24826049804688
  endloop
endfacet
facet normal -0.1260786205530167 0.9576622247695923 0.258819043636322
  outer loop
    vertex -355.7726440429688 -381.9651794433594 27.50324249267578
    vertex -353.8245849609375 -381.4395141601562 26.50722312927246
    vertex -355.8074645996094 -381.7005920410156 26.50722312927246
  endloop
endfacet
facet normal -0.1260786205530167 0.9576622247695923 0.258819043636322
  outer loop
    vertex -353.8245849609375 -381.4395141601562 26.50722312927246
    vertex -355.7726440429688 -381.9651794433594 27.50324249267578
    vertex -353.7897644042969 -381.7041320800781 27.50324249267578
  endloop
endfacet
facet normal 0.06526309251785278 -0.4957224428653717 -0.8660253882408142
  outer loop
    vertex -410.7229614257812 -393.6087036132812 24.24826049804688
    vertex -412.6501770019531 -394.292724609375 24.49456787109375
    vertex -412.7058410644531 -393.8697509765625 24.24826049804688
  endloop
endfacet
facet normal 0.06526309251785278 -0.4957224428653717 -0.8660253882408142
  outer loop
    vertex -412.6501770019531 -394.292724609375 24.49456787109375
    vertex -410.7229614257812 -393.6087036132812 24.24826049804688
    vertex -410.6672668457031 -394.0316772460938 24.49456787109375
  endloop
endfacet
facet normal -0.9914448857307434 -0.1305261850357056 -3.320615004549798e-15
  outer loop
    vertex -355.0989990234375 -387.0819396972656 29.64096832275391
    vertex -355.0439758300781 -387.5000610351562 26.24617004394531
    vertex -354.9824523925781 -387.9673156738281 29.12538909912109
  endloop
endfacet
facet normal -0.9914448857307434 -0.1305261850357056 -3.320615004549798e-15
  outer loop
    vertex -355.0439758300781 -387.5000610351562 26.24617004394531
    vertex -355.0989990234375 -387.0819396972656 29.64096832275391
    vertex -355.0611572265625 -387.3694458007812 26.73787689208984
  endloop
endfacet
facet normal -0.9914448857307434 -0.1305261850357056 -3.320615004549798e-15
  outer loop
    vertex -355.0611572265625 -387.3694458007812 26.73787689208984
    vertex -355.0989990234375 -387.0819396972656 29.64096832275391
    vertex -355.0943908691406 -387.1170959472656 27.1787281036377
  endloop
endfacet
facet normal -0.9914448857307434 -0.1305261850357056 -3.320615004549798e-15
  outer loop
    vertex -355.0943908691406 -387.1170959472656 27.1787281036377
    vertex -355.0989990234375 -387.0819396972656 29.64096832275391
    vertex -355.141357421875 -386.7602233886719 27.53868293762207
  endloop
endfacet
facet normal -0.9914448857307434 -0.1305261850357056 -3.320615004549798e-15
  outer loop
    vertex -355.141357421875 -386.7602233886719 27.53868293762207
    vertex -355.0989990234375 -387.0819396972656 29.64096832275391
    vertex -355.22900390625 -386.0944519042969 29.90785026550293
  endloop
endfacet
facet normal -0.9914448857307434 -0.1305261850357056 -3.320615004549798e-15
  outer loop
    vertex -355.141357421875 -386.7602233886719 27.53868293762207
    vertex -355.22900390625 -386.0944519042969 29.90785026550293
    vertex -355.1989135742188 -386.3231201171875 27.79320907592773
  endloop
endfacet
facet normal -0.9914448857307434 -0.1305261850357056 -3.320615004549798e-15
  outer loop
    vertex -355.1989135742188 -386.3231201171875 27.79320907592773
    vertex -355.22900390625 -386.0944519042969 29.90785026550293
    vertex -355.2630920410156 -385.8356323242188 27.92496109008789
  endloop
endfacet
facet normal -0.9914448857307434 -0.1305261850357056 -3.320615004549798e-15
  outer loop
    vertex -355.2630920410156 -385.8356323242188 27.92496109008789
    vertex -355.22900390625 -386.0944519042969 29.90785026550293
    vertex -355.3636169433594 -385.0721130371094 29.90785026550293
  endloop
endfacet
facet normal -0.9914448857307434 -0.1305261850357056 -3.320615004549798e-15
  outer loop
    vertex -355.2630920410156 -385.8356323242188 27.92496109008789
    vertex -355.3636169433594 -385.0721130371094 29.90785026550293
    vertex -355.3295288085938 -385.3309326171875 27.92496109008789
  endloop
endfacet
facet normal -0.9914448857307434 -0.1305261850357056 -3.320615004549798e-15
  outer loop
    vertex -355.3295288085938 -385.3309326171875 27.92496109008789
    vertex -355.3636169433594 -385.0721130371094 29.90785026550293
    vertex -355.3937072753906 -384.8434448242188 27.79320907592773
  endloop
endfacet
facet normal -0.9914448857307434 -0.1305261850357056 -3.320615004549798e-15
  outer loop
    vertex -355.3937072753906 -384.8434448242188 27.79320907592773
    vertex -355.3636169433594 -385.0721130371094 29.90785026550293
    vertex -355.4936218261719 -384.0846252441406 29.64096832275391
  endloop
endfacet
facet normal -0.9914448857307434 -0.1305261850357056 -3.320615004549798e-15
  outer loop
    vertex -355.3937072753906 -384.8434448242188 27.79320907592773
    vertex -355.4936218261719 -384.0846252441406 29.64096832275391
    vertex -355.4512634277344 -384.4063415527344 27.53868293762207
  endloop
endfacet
facet normal -0.9914448857307434 -0.1305261850357056 -3.320615004549798e-15
  outer loop
    vertex -355.4512634277344 -384.4063415527344 27.53868293762207
    vertex -355.4936218261719 -384.0846252441406 29.64096832275391
    vertex -355.4982299804688 -384.0494689941406 27.1787281036377
  endloop
endfacet
facet normal -0.9914448857307434 -0.1305261850357056 -3.320615004549798e-15
  outer loop
    vertex -355.4982299804688 -384.0494689941406 27.1787281036377
    vertex -355.4936218261719 -384.0846252441406 29.64096832275391
    vertex -355.6101684570312 -383.1992492675781 29.12538909912109
  endloop
endfacet
facet normal -0.9914448857307434 -0.1305261850357056 -3.320615004549798e-15
  outer loop
    vertex -355.4982299804688 -384.0494689941406 27.1787281036377
    vertex -355.6101684570312 -383.1992492675781 29.12538909912109
    vertex -355.5314636230469 -383.797119140625 26.73787689208984
  endloop
endfacet
facet normal -0.9914448857307434 -0.1305261850357056 -3.320615004549798e-15
  outer loop
    vertex -355.5314636230469 -383.797119140625 26.73787689208984
    vertex -355.6101684570312 -383.1992492675781 29.12538909912109
    vertex -355.5486450195312 -383.66650390625 26.24617004394531
  endloop
endfacet
facet normal -0.9914448857307434 -0.1305261850357056 -3.320615004549798e-15
  outer loop
    vertex -355.5486450195312 -383.66650390625 26.24617004394531
    vertex -355.6101684570312 -383.1992492675781 29.12538909912109
    vertex -355.5486450195312 -383.66650390625 25.73711776733398
  endloop
endfacet
facet normal -0.9914448857307434 -0.1305261850357056 -3.320615004549798e-15
  outer loop
    vertex -355.5486450195312 -383.66650390625 25.73711776733398
    vertex -355.6101684570312 -383.1992492675781 29.12538909912109
    vertex -355.6101684570312 -383.1992492675781 22.8578987121582
  endloop
endfacet
facet normal -0.9914448857307434 -0.1305261850357056 -3.320615004549798e-15
  outer loop
    vertex -355.6101684570312 -383.1992492675781 22.8578987121582
    vertex -355.6101684570312 -383.1992492675781 29.12538909912109
    vertex -355.7053527832031 -382.4763488769531 23.5870361328125
  endloop
endfacet
facet normal -0.9914448857307434 -0.1305261850357056 -3.320615004549798e-15
  outer loop
    vertex -355.7053527832031 -382.4763488769531 23.5870361328125
    vertex -355.6101684570312 -383.1992492675781 29.12538909912109
    vertex -355.7053527832031 -382.4763488769531 28.3962516784668
  endloop
endfacet
facet normal -0.9914448857307434 -0.1305261850357056 -3.320615004549798e-15
  outer loop
    vertex -355.7053527832031 -382.4763488769531 23.5870361328125
    vertex -355.7053527832031 -382.4763488769531 28.3962516784668
    vertex -355.7726440429688 -381.9651794433594 24.48004341125488
  endloop
endfacet
facet normal -0.9914448857307434 -0.1305261850357056 -3.320615004549798e-15
  outer loop
    vertex -355.7726440429688 -381.9651794433594 24.48004341125488
    vertex -355.7053527832031 -382.4763488769531 28.3962516784668
    vertex -355.7726440429688 -381.9651794433594 27.50324249267578
  endloop
endfacet
facet normal -0.9914448857307434 -0.1305261850357056 -3.320615004549798e-15
  outer loop
    vertex -355.7726440429688 -381.9651794433594 24.48004341125488
    vertex -355.7726440429688 -381.9651794433594 27.50324249267578
    vertex -355.8074645996094 -381.7005920410156 25.47606468200684
  endloop
endfacet
facet normal -0.9914448857307434 -0.1305261850357056 -3.320615004549798e-15
  outer loop
    vertex -355.8074645996094 -381.7005920410156 25.47606468200684
    vertex -355.7726440429688 -381.9651794433594 27.50324249267578
    vertex -355.8074645996094 -381.7005920410156 26.50722312927246
  endloop
endfacet
facet normal -0.9914448857307434 -0.1305261850357056 -3.320615004549798e-15
  outer loop
    vertex -354.78515625 -389.4660034179688 26.50722312927246
    vertex -354.8199768066406 -389.2013854980469 24.48004341125488
    vertex -354.78515625 -389.4660034179688 25.47606468200684
  endloop
endfacet
facet normal -0.9914448857307434 -0.1305261850357056 -3.320615004549798e-15
  outer loop
    vertex -354.8199768066406 -389.2013854980469 24.48004341125488
    vertex -354.78515625 -389.4660034179688 26.50722312927246
    vertex -354.8199768066406 -389.2013854980469 27.50324249267578
  endloop
endfacet
facet normal -0.9914448857307434 -0.1305261850357056 -3.320615004549798e-15
  outer loop
    vertex -354.8199768066406 -389.2013854980469 24.48004341125488
    vertex -354.8199768066406 -389.2013854980469 27.50324249267578
    vertex -354.8872680664062 -388.6902160644531 23.5870361328125
  endloop
endfacet
facet normal -0.9914448857307434 -0.1305261850357056 -3.320615004549798e-15
  outer loop
    vertex -354.8872680664062 -388.6902160644531 23.5870361328125
    vertex -354.8199768066406 -389.2013854980469 27.50324249267578
    vertex -354.8872680664062 -388.6902160644531 28.3962516784668
  endloop
endfacet
facet normal -0.9914448857307434 -0.1305261850357056 -3.320615004549798e-15
  outer loop
    vertex -354.8872680664062 -388.6902160644531 23.5870361328125
    vertex -354.8872680664062 -388.6902160644531 28.3962516784668
    vertex -354.9824523925781 -387.9673156738281 22.8578987121582
  endloop
endfacet
facet normal -0.9914448857307434 -0.1305261850357056 -3.320615004549798e-15
  outer loop
    vertex -354.9824523925781 -387.9673156738281 22.8578987121582
    vertex -354.8872680664062 -388.6902160644531 28.3962516784668
    vertex -354.9824523925781 -387.9673156738281 29.12538909912109
  endloop
endfacet
facet normal -0.9914448857307434 -0.1305261850357056 -3.320615004549798e-15
  outer loop
    vertex -354.9824523925781 -387.9673156738281 22.8578987121582
    vertex -354.9824523925781 -387.9673156738281 29.12538909912109
    vertex -355.0989990234375 -387.0819396972656 22.34231948852539
  endloop
endfacet
facet normal -0.9914448857307434 -0.1305261850357056 -3.320615004549798e-15
  outer loop
    vertex -355.0989990234375 -387.0819396972656 22.34231948852539
    vertex -354.9824523925781 -387.9673156738281 29.12538909912109
    vertex -355.0439758300781 -387.5000610351562 25.73711776733398
  endloop
endfacet
facet normal -0.9914448857307434 -0.1305261850357056 -3.320615004549798e-15
  outer loop
    vertex -355.0439758300781 -387.5000610351562 25.73711776733398
    vertex -354.9824523925781 -387.9673156738281 29.12538909912109
    vertex -355.0439758300781 -387.5000610351562 26.24617004394531
  endloop
endfacet
facet normal -0.9914448857307434 -0.1305261850357056 -3.320615004549798e-15
  outer loop
    vertex -355.0989990234375 -387.0819396972656 22.34231948852539
    vertex -355.0439758300781 -387.5000610351562 25.73711776733398
    vertex -355.0611572265625 -387.3694458007812 25.24541091918945
  endloop
endfacet
facet normal -0.9914448857307434 -0.1305261850357056 -3.320615004549798e-15
  outer loop
    vertex -355.0989990234375 -387.0819396972656 22.34231948852539
    vertex -355.0611572265625 -387.3694458007812 25.24541091918945
    vertex -355.0943908691406 -387.1170959472656 24.8045597076416
  endloop
endfacet
facet normal -0.9914448857307434 -0.1305261850357056 -3.320615004549798e-15
  outer loop
    vertex -355.0989990234375 -387.0819396972656 22.34231948852539
    vertex -355.0943908691406 -387.1170959472656 24.8045597076416
    vertex -355.141357421875 -386.7602233886719 24.44460487365723
  endloop
endfacet
facet normal -0.9914448857307434 -0.1305261850357056 -3.320615004549798e-15
  outer loop
    vertex -355.0989990234375 -387.0819396972656 22.34231948852539
    vertex -355.141357421875 -386.7602233886719 24.44460487365723
    vertex -355.22900390625 -386.0944519042969 22.07543563842773
  endloop
endfacet
facet normal -0.9914448857307434 -0.1305261850357056 -3.320615004549798e-15
  outer loop
    vertex -355.22900390625 -386.0944519042969 22.07543563842773
    vertex -355.141357421875 -386.7602233886719 24.44460487365723
    vertex -355.1989135742188 -386.3231201171875 24.19007873535156
  endloop
endfacet
facet normal -0.9914448857307434 -0.1305261850357056 -3.320615004549798e-15
  outer loop
    vertex -355.22900390625 -386.0944519042969 22.07543563842773
    vertex -355.1989135742188 -386.3231201171875 24.19007873535156
    vertex -355.2630920410156 -385.8356323242188 24.05832672119141
  endloop
endfacet
facet normal -0.9914448857307434 -0.1305261850357056 -3.320615004549798e-15
  outer loop
    vertex -355.22900390625 -386.0944519042969 22.07543563842773
    vertex -355.2630920410156 -385.8356323242188 24.05832672119141
    vertex -355.3636169433594 -385.0721130371094 22.07543563842773
  endloop
endfacet
facet normal -0.9914448857307434 -0.1305261850357056 -3.320615004549798e-15
  outer loop
    vertex -355.3636169433594 -385.0721130371094 22.07543563842773
    vertex -355.2630920410156 -385.8356323242188 24.05832672119141
    vertex -355.3295288085938 -385.3309326171875 24.05832672119141
  endloop
endfacet
facet normal -0.9914448857307434 -0.1305261850357056 -3.320615004549798e-15
  outer loop
    vertex -355.3636169433594 -385.0721130371094 22.07543563842773
    vertex -355.3295288085938 -385.3309326171875 24.05832672119141
    vertex -355.3937072753906 -384.8434448242188 24.19007873535156
  endloop
endfacet
facet normal -0.9914448857307434 -0.1305261850357056 -3.320615004549798e-15
  outer loop
    vertex -355.3636169433594 -385.0721130371094 22.07543563842773
    vertex -355.3937072753906 -384.8434448242188 24.19007873535156
    vertex -355.4936218261719 -384.0846252441406 22.34231948852539
  endloop
endfacet
facet normal -0.9914448857307434 -0.1305261850357056 -3.320615004549798e-15
  outer loop
    vertex -355.4936218261719 -384.0846252441406 22.34231948852539
    vertex -355.3937072753906 -384.8434448242188 24.19007873535156
    vertex -355.4512634277344 -384.4063415527344 24.44460487365723
  endloop
endfacet
facet normal -0.9914448857307434 -0.1305261850357056 -3.320615004549798e-15
  outer loop
    vertex -355.4936218261719 -384.0846252441406 22.34231948852539
    vertex -355.4512634277344 -384.4063415527344 24.44460487365723
    vertex -355.4982299804688 -384.0494689941406 24.8045597076416
  endloop
endfacet
facet normal -0.9914448857307434 -0.1305261850357056 -3.320615004549798e-15
  outer loop
    vertex -355.4936218261719 -384.0846252441406 22.34231948852539
    vertex -355.4982299804688 -384.0494689941406 24.8045597076416
    vertex -355.6101684570312 -383.1992492675781 22.8578987121582
  endloop
endfacet
facet normal -0.9914448857307434 -0.1305261850357056 -3.320615004549798e-15
  outer loop
    vertex -355.6101684570312 -383.1992492675781 22.8578987121582
    vertex -355.4982299804688 -384.0494689941406 24.8045597076416
    vertex -355.5314636230469 -383.797119140625 25.24541091918945
  endloop
endfacet
facet normal -0.9914448857307434 -0.1305261850357056 -3.320615004549798e-15
  outer loop
    vertex -355.6101684570312 -383.1992492675781 22.8578987121582
    vertex -355.5314636230469 -383.797119140625 25.24541091918945
    vertex -355.5486450195312 -383.66650390625 25.73711776733398
  endloop
endfacet
facet normal -0.06526309251785278 0.4957224428653717 -0.8660253882408142
  outer loop
    vertex -353.6272888183594 -382.9382019042969 22.8578987121582
    vertex -355.4936218261719 -384.0846252441406 22.34231948852539
    vertex -355.6101684570312 -383.1992492675781 22.8578987121582
  endloop
endfacet
facet normal -0.06526309251785278 0.4957224428653717 -0.8660253882408142
  outer loop
    vertex -355.4936218261719 -384.0846252441406 22.34231948852539
    vertex -353.6272888183594 -382.9382019042969 22.8578987121582
    vertex -353.5107116699219 -383.8235778808594 22.34231948852539
  endloop
endfacet
facet normal 0.1130390018224716 -0.8586164116859436 0.5
  outer loop
    vertex -410.621826171875 -394.3770141601562 27.14039039611816
    vertex -412.5725402832031 -394.8822631835938 26.71377754211426
    vertex -410.5896606445312 -394.6212158203125 26.71377754211426
  endloop
endfacet
facet normal 0.1130390018224716 -0.8586164116859436 0.5
  outer loop
    vertex -412.5725402832031 -394.8822631835938 26.71377754211426
    vertex -410.621826171875 -394.3770141601562 27.14039039611816
    vertex -412.6047058105469 -394.6380615234375 27.14039039611816
  endloop
endfacet
facet normal 0.1305261850357056 -0.9914448857307434 -9.08086878804483e-14
  outer loop
    vertex -410.5730285644531 -394.7476196289062 26.23794937133789
    vertex -412.555908203125 -395.0086669921875 25.74533843994141
    vertex -410.5730285644531 -394.7476196289062 25.74533843994141
  endloop
endfacet
facet normal 0.1305261850357056 -0.9914448857307434 -9.08086878804483e-14
  outer loop
    vertex -412.555908203125 -395.0086669921875 25.74533843994141
    vertex -410.5730285644531 -394.7476196289062 26.23794937133789
    vertex -412.555908203125 -395.0086669921875 26.23794937133789
  endloop
endfacet
facet normal 0.09229595214128494 -0.7010573744773865 -0.7071067690849304
  outer loop
    vertex -352.9995422363281 -387.7062683105469 22.8578987121582
    vertex -354.8872680664062 -388.6902160644531 23.5870361328125
    vertex -354.9824523925781 -387.9673156738281 22.8578987121582
  endloop
endfacet
facet normal 0.09229595214128494 -0.7010573744773865 -0.7071067690849304
  outer loop
    vertex -354.8872680664062 -388.6902160644531 23.5870361328125
    vertex -352.9995422363281 -387.7062683105469 22.8578987121582
    vertex -352.9043884277344 -388.4291687011719 23.5870361328125
  endloop
endfacet
facet normal -0.9914448857307434 -0.1305261850357056 1.611582164918156e-14
  outer loop
    vertex -412.5725402832031 -394.8822631835938 26.71377754211426
    vertex -412.555908203125 -395.0086669921875 25.74533843994141
    vertex -412.555908203125 -395.0086669921875 26.23794937133789
  endloop
endfacet
facet normal -0.9914448857307434 -0.1305261850357056 1.611582164918156e-14
  outer loop
    vertex -412.555908203125 -395.0086669921875 25.74533843994141
    vertex -412.5725402832031 -394.8822631835938 26.71377754211426
    vertex -412.5725402832031 -394.8822631835938 25.26951026916504
  endloop
endfacet
facet normal -0.9914448857307434 -0.1305261850357056 1.611582164918156e-14
  outer loop
    vertex -412.5725402832031 -394.8822631835938 25.26951026916504
    vertex -412.5725402832031 -394.8822631835938 26.71377754211426
    vertex -412.6047058105469 -394.6380615234375 27.14039039611816
  endloop
endfacet
facet normal -0.9914448857307434 -0.1305261850357056 1.611582164918156e-14
  outer loop
    vertex -412.5725402832031 -394.8822631835938 25.26951026916504
    vertex -412.6047058105469 -394.6380615234375 27.14039039611816
    vertex -412.6047058105469 -394.6380615234375 24.8428955078125
  endloop
endfacet
facet normal -0.9914448857307434 -0.1305261850357056 1.611582164918156e-14
  outer loop
    vertex -412.6047058105469 -394.6380615234375 24.8428955078125
    vertex -412.6047058105469 -394.6380615234375 27.14039039611816
    vertex -412.6501770019531 -394.292724609375 27.48871994018555
  endloop
endfacet
facet normal -0.9914448857307434 -0.1305261850357056 1.611582164918156e-14
  outer loop
    vertex -412.6047058105469 -394.6380615234375 24.8428955078125
    vertex -412.6501770019531 -394.292724609375 27.48871994018555
    vertex -412.6501770019531 -394.292724609375 24.49456787109375
  endloop
endfacet
facet normal -0.9914448857307434 -0.1305261850357056 1.611582164918156e-14
  outer loop
    vertex -412.6501770019531 -394.292724609375 24.49456787109375
    vertex -412.6501770019531 -394.292724609375 27.48871994018555
    vertex -412.7058410644531 -393.8697509765625 24.24826049804688
  endloop
endfacet
facet normal -0.9914448857307434 -0.1305261850357056 1.611582164918156e-14
  outer loop
    vertex -412.7058410644531 -393.8697509765625 24.24826049804688
    vertex -412.6501770019531 -394.292724609375 27.48871994018555
    vertex -412.7058410644531 -393.8697509765625 27.73502731323242
  endloop
endfacet
facet normal -0.9914448857307434 -0.1305261850357056 1.611582164918156e-14
  outer loop
    vertex -412.7058410644531 -393.8697509765625 24.24826049804688
    vertex -412.7058410644531 -393.8697509765625 27.73502731323242
    vertex -412.7679748535156 -393.3980102539062 24.12076377868652
  endloop
endfacet
facet normal -0.9914448857307434 -0.1305261850357056 1.611582164918156e-14
  outer loop
    vertex -412.7679748535156 -393.3980102539062 24.12076377868652
    vertex -412.7058410644531 -393.8697509765625 27.73502731323242
    vertex -412.7679748535156 -393.3980102539062 27.86252403259277
  endloop
endfacet
facet normal -0.9914448857307434 -0.1305261850357056 1.611582164918156e-14
  outer loop
    vertex -412.7679748535156 -393.3980102539062 24.12076377868652
    vertex -412.7679748535156 -393.3980102539062 27.86252403259277
    vertex -412.832275390625 -392.9096069335938 27.86252403259277
  endloop
endfacet
facet normal -0.9914448857307434 -0.1305261850357056 1.611582164918156e-14
  outer loop
    vertex -412.7679748535156 -393.3980102539062 24.12076377868652
    vertex -412.832275390625 -392.9096069335938 27.86252403259277
    vertex -412.832275390625 -392.9096069335938 24.12076377868652
  endloop
endfacet
facet normal -0.9914448857307434 -0.1305261850357056 1.611582164918156e-14
  outer loop
    vertex -412.832275390625 -392.9096069335938 24.12076377868652
    vertex -412.832275390625 -392.9096069335938 27.86252403259277
    vertex -412.8943786621094 -392.4378356933594 27.73502731323242
  endloop
endfacet
facet normal -0.9914448857307434 -0.1305261850357056 1.611582164918156e-14
  outer loop
    vertex -412.832275390625 -392.9096069335938 24.12076377868652
    vertex -412.8943786621094 -392.4378356933594 27.73502731323242
    vertex -412.8943786621094 -392.4378356933594 24.24826049804688
  endloop
endfacet
facet normal -0.9914448857307434 -0.1305261850357056 1.611582164918156e-14
  outer loop
    vertex -412.8943786621094 -392.4378356933594 24.24826049804688
    vertex -412.8943786621094 -392.4378356933594 27.73502731323242
    vertex -412.9500427246094 -392.014892578125 24.49456787109375
  endloop
endfacet
facet normal -0.9914448857307434 -0.1305261850357056 1.611582164918156e-14
  outer loop
    vertex -412.9500427246094 -392.014892578125 24.49456787109375
    vertex -412.8943786621094 -392.4378356933594 27.73502731323242
    vertex -412.9500427246094 -392.014892578125 27.48871994018555
  endloop
endfacet
facet normal -0.9914448857307434 -0.1305261850357056 1.611582164918156e-14
  outer loop
    vertex -412.9500427246094 -392.014892578125 24.49456787109375
    vertex -412.9500427246094 -392.014892578125 27.48871994018555
    vertex -412.9955139160156 -391.6695251464844 24.8428955078125
  endloop
endfacet
facet normal -0.9914448857307434 -0.1305261850357056 1.611582164918156e-14
  outer loop
    vertex -412.9955139160156 -391.6695251464844 24.8428955078125
    vertex -412.9500427246094 -392.014892578125 27.48871994018555
    vertex -412.9955139160156 -391.6695251464844 27.14039039611816
  endloop
endfacet
facet normal -0.9914448857307434 -0.1305261850357056 1.611582164918156e-14
  outer loop
    vertex -412.9955139160156 -391.6695251464844 24.8428955078125
    vertex -412.9955139160156 -391.6695251464844 27.14039039611816
    vertex -413.0276794433594 -391.4253234863281 25.26951026916504
  endloop
endfacet
facet normal -0.9914448857307434 -0.1305261850357056 1.611582164918156e-14
  outer loop
    vertex -413.0276794433594 -391.4253234863281 25.26951026916504
    vertex -412.9955139160156 -391.6695251464844 27.14039039611816
    vertex -413.0276794433594 -391.4253234863281 26.71377754211426
  endloop
endfacet
facet normal -0.9914448857307434 -0.1305261850357056 1.611582164918156e-14
  outer loop
    vertex -413.0276794433594 -391.4253234863281 25.26951026916504
    vertex -413.0276794433594 -391.4253234863281 26.71377754211426
    vertex -413.0443115234375 -391.2989196777344 26.23794937133789
  endloop
endfacet
facet normal -0.9914448857307434 -0.1305261850357056 1.611582164918156e-14
  outer loop
    vertex -413.0276794433594 -391.4253234863281 25.26951026916504
    vertex -413.0443115234375 -391.2989196777344 26.23794937133789
    vertex -413.0443115234375 -391.2989196777344 25.74533843994141
  endloop
endfacet
facet normal 0.09229595214128494 -0.7010573744773865 0.7071067690849304
  outer loop
    vertex -412.6047058105469 -394.6380615234375 27.14039039611816
    vertex -410.6672668457031 -394.0316772460938 27.48871994018555
    vertex -412.6501770019531 -394.292724609375 27.48871994018555
  endloop
endfacet
facet normal 0.09229595214128494 -0.7010573744773865 0.7071067690849304
  outer loop
    vertex -410.6672668457031 -394.0316772460938 27.48871994018555
    vertex -412.6047058105469 -394.6380615234375 27.14039039611816
    vertex -410.621826171875 -394.3770141601562 27.14039039611816
  endloop
endfacet
facet normal -0.1130390018224716 0.8586164116859436 -0.5
  outer loop
    vertex -355.7726440429688 -381.9651794433594 24.48004341125488
    vertex -353.7224426269531 -382.2153015136719 23.5870361328125
    vertex -355.7053527832031 -382.4763488769531 23.5870361328125
  endloop
endfacet
facet normal -0.1130390018224716 0.8586164116859436 -0.5
  outer loop
    vertex -353.7224426269531 -382.2153015136719 23.5870361328125
    vertex -355.7726440429688 -381.9651794433594 24.48004341125488
    vertex -353.7897644042969 -381.7041320800781 24.48004341125488
  endloop
endfacet
facet normal -6.145665760011942e-15 2.125777073087257e-14 1
  outer loop
    vertex -355.22900390625 -386.0944519042969 29.90785026550293
    vertex -353.3807067871094 -384.8110656738281 29.90785026550293
    vertex -355.3636169433594 -385.0721130371094 29.90785026550293
  endloop
endfacet
facet normal -6.145665760011942e-15 2.125777073087257e-14 1
  outer loop
    vertex -353.3807067871094 -384.8110656738281 29.90785026550293
    vertex -355.22900390625 -386.0944519042969 29.90785026550293
    vertex -353.2461242675781 -385.8334045410156 29.90785026550293
  endloop
endfacet
facet normal 0.1260786205530167 -0.9576622247695923 0.258819043636322
  outer loop
    vertex -410.5896606445312 -394.6212158203125 26.71377754211426
    vertex -412.555908203125 -395.0086669921875 26.23794937133789
    vertex -410.5730285644531 -394.7476196289062 26.23794937133789
  endloop
endfacet
facet normal 0.1260786205530167 -0.9576622247695923 0.258819043636322
  outer loop
    vertex -412.555908203125 -395.0086669921875 26.23794937133789
    vertex -410.5896606445312 -394.6212158203125 26.71377754211426
    vertex -412.5725402832031 -394.8822631835938 26.71377754211426
  endloop
endfacet
facet normal 0.06526309251785278 -0.4957224428653717 0.8660253882408142
  outer loop
    vertex -412.6501770019531 -394.292724609375 27.48871994018555
    vertex -410.7229614257812 -393.6087036132812 27.73502731323242
    vertex -412.7058410644531 -393.8697509765625 27.73502731323242
  endloop
endfacet
facet normal 0.06526309251785278 -0.4957224428653717 0.8660253882408142
  outer loop
    vertex -410.7229614257812 -393.6087036132812 27.73502731323242
    vertex -412.6501770019531 -394.292724609375 27.48871994018555
    vertex -410.6672668457031 -394.0316772460938 27.48871994018555
  endloop
endfacet
facet normal 0.1260786205530167 -0.9576622247695923 0.258819043636322
  outer loop
    vertex -352.80224609375 -389.2049255371094 26.50722312927246
    vertex -354.8199768066406 -389.2013854980469 27.50324249267578
    vertex -354.78515625 -389.4660034179688 26.50722312927246
  endloop
endfacet
facet normal 0.1260786205530167 -0.9576622247695923 0.258819043636322
  outer loop
    vertex -354.8199768066406 -389.2013854980469 27.50324249267578
    vertex -352.80224609375 -389.2049255371094 26.50722312927246
    vertex -352.8370971679688 -388.9403381347656 27.50324249267578
  endloop
endfacet
facet normal -0.1130390018224716 0.8586164116859436 0.5
  outer loop
    vertex -411.0523681640625 -391.1065979003906 26.73787689208984
    vertex -355.4982299804688 -384.0494689941406 27.1787281036377
    vertex -355.5314636230469 -383.797119140625 26.73787689208984
  endloop
endfacet
facet normal -0.1130390018224716 0.8586164116859436 0.5
  outer loop
    vertex -355.4982299804688 -384.0494689941406 27.1787281036377
    vertex -411.0523681640625 -391.1065979003906 26.73787689208984
    vertex -411.0191650390625 -391.3589477539062 27.1787281036377
  endloop
endfacet
facet normal -0.1260786205530167 0.9576622247695923 -0.258819043636322
  outer loop
    vertex -411.0523681640625 -391.1065979003906 25.24541091918945
    vertex -355.5486450195312 -383.66650390625 25.73711776733398
    vertex -355.5314636230469 -383.797119140625 25.24541091918945
  endloop
endfacet
facet normal -0.1260786205530167 0.9576622247695923 -0.258819043636322
  outer loop
    vertex -355.5486450195312 -383.66650390625 25.73711776733398
    vertex -411.0523681640625 -391.1065979003906 25.24541091918945
    vertex -411.069580078125 -390.9759826660156 25.73711776733398
  endloop
endfacet
facet normal 0.06526309251785278 -0.4957224428653717 -0.8660253882408142
  outer loop
    vertex -353.1161193847656 -386.8208923339844 22.34231948852539
    vertex -354.9824523925781 -387.9673156738281 22.8578987121582
    vertex -355.0989990234375 -387.0819396972656 22.34231948852539
  endloop
endfacet
facet normal 0.06526309251785278 -0.4957224428653717 -0.8660253882408142
  outer loop
    vertex -354.9824523925781 -387.9673156738281 22.8578987121582
    vertex -353.1161193847656 -386.8208923339844 22.34231948852539
    vertex -352.9995422363281 -387.7062683105469 22.8578987121582
  endloop
endfacet
facet normal 0.03378266468644142 -0.2566048204898834 0.9659258127212524
  outer loop
    vertex -410.7198181152344 -393.6325988769531 27.79320907592773
    vertex -355.2630920410156 -385.8356323242188 27.92496109008789
    vertex -410.7839965820312 -393.1451110839844 27.92496109008789
  endloop
endfacet
facet normal 0.03378266468644142 -0.2566048204898834 0.9659258127212524
  outer loop
    vertex -355.2630920410156 -385.8356323242188 27.92496109008789
    vertex -410.7198181152344 -393.6325988769531 27.79320907592773
    vertex -355.1989135742188 -386.3231201171875 27.79320907592773
  endloop
endfacet
facet normal -0.1260786205530167 0.9576622247695923 0.258819043636322
  outer loop
    vertex -411.069580078125 -390.9759826660156 26.24617004394531
    vertex -355.5314636230469 -383.797119140625 26.73787689208984
    vertex -355.5486450195312 -383.66650390625 26.24617004394531
  endloop
endfacet
facet normal -0.1260786205530167 0.9576622247695923 0.258819043636322
  outer loop
    vertex -355.5314636230469 -383.797119140625 26.73787689208984
    vertex -411.069580078125 -390.9759826660156 26.24617004394531
    vertex -411.0523681640625 -391.1065979003906 26.73787689208984
  endloop
endfacet
facet normal -0.1130390018224716 0.8586164116859436 0.5
  outer loop
    vertex -355.7053527832031 -382.4763488769531 28.3962516784668
    vertex -353.7897644042969 -381.7041320800781 27.50324249267578
    vertex -355.7726440429688 -381.9651794433594 27.50324249267578
  endloop
endfacet
facet normal -0.1130390018224716 0.8586164116859436 0.5
  outer loop
    vertex -353.7897644042969 -381.7041320800781 27.50324249267578
    vertex -355.7053527832031 -382.4763488769531 28.3962516784668
    vertex -353.7224426269531 -382.2153015136719 28.3962516784668
  endloop
endfacet
facet normal -0.06526309251785278 0.4957224428653717 0.8660253882408142
  outer loop
    vertex -412.8943786621094 -392.4378356933594 27.73502731323242
    vertex -410.9671630859375 -391.7538452148438 27.48871994018555
    vertex -412.9500427246094 -392.014892578125 27.48871994018555
  endloop
endfacet
facet normal -0.06526309251785278 0.4957224428653717 0.8660253882408142
  outer loop
    vertex -410.9671630859375 -391.7538452148438 27.48871994018555
    vertex -412.8943786621094 -392.4378356933594 27.73502731323242
    vertex -410.9114685058594 -392.1767883300781 27.73502731323242
  endloop
endfacet
facet normal -0.1260786205530167 0.9576622247695923 -0.258819043636322
  outer loop
    vertex -413.0443115234375 -391.2989196777344 25.74533843994141
    vertex -411.0447692871094 -391.1642761230469 25.26951026916504
    vertex -413.0276794433594 -391.4253234863281 25.26951026916504
  endloop
endfacet
facet normal -0.1260786205530167 0.9576622247695923 -0.258819043636322
  outer loop
    vertex -411.0447692871094 -391.1642761230469 25.26951026916504
    vertex -413.0443115234375 -391.2989196777344 25.74533843994141
    vertex -411.0614318847656 -391.0378723144531 25.74533843994141
  endloop
endfacet
facet normal 0.03378266468644142 -0.2566048204898834 0.9659258127212524
  outer loop
    vertex -412.7058410644531 -393.8697509765625 27.73502731323242
    vertex -410.7850646972656 -393.136962890625 27.86252403259277
    vertex -412.7679748535156 -393.3980102539062 27.86252403259277
  endloop
endfacet
facet normal 0.03378266468644142 -0.2566048204898834 0.9659258127212524
  outer loop
    vertex -410.7850646972656 -393.136962890625 27.86252403259277
    vertex -412.7058410644531 -393.8697509765625 27.73502731323242
    vertex -410.7229614257812 -393.6087036132812 27.73502731323242
  endloop
endfacet
facet normal -0.06526309251785278 0.4957224428653717 -0.8660253882408142
  outer loop
    vertex -355.4512634277344 -384.4063415527344 24.44460487365723
    vertex -410.9146118164062 -392.1528930664062 24.19007873535156
    vertex -410.97216796875 -391.7158203125 24.44460487365723
  endloop
endfacet
facet normal -0.06526309251785278 0.4957224428653717 -0.8660253882408142
  outer loop
    vertex -410.9146118164062 -392.1528930664062 24.19007873535156
    vertex -355.4512634277344 -384.4063415527344 24.44460487365723
    vertex -355.3937072753906 -384.8434448242188 24.19007873535156
  endloop
endfacet
facet normal 1.142826116858363e-16 -5.758868164648266e-15 -1
  outer loop
    vertex -410.849365234375 -392.6485595703125 24.12076377868652
    vertex -412.7679748535156 -393.3980102539062 24.12076377868652
    vertex -412.832275390625 -392.9096069335938 24.12076377868652
  endloop
endfacet
facet normal 1.142826116858363e-16 -5.758868164648266e-15 -1
  outer loop
    vertex -412.7679748535156 -393.3980102539062 24.12076377868652
    vertex -410.849365234375 -392.6485595703125 24.12076377868652
    vertex -410.7850646972656 -393.136962890625 24.12076377868652
  endloop
endfacet
facet normal -0.09229595214128494 0.7010573744773865 -0.7071067690849304
  outer loop
    vertex -411.0126342773438 -391.4084777832031 24.8428955078125
    vertex -412.9500427246094 -392.014892578125 24.49456787109375
    vertex -412.9955139160156 -391.6695251464844 24.8428955078125
  endloop
endfacet
facet normal -0.09229595214128494 0.7010573744773865 -0.7071067690849304
  outer loop
    vertex -412.9500427246094 -392.014892578125 24.49456787109375
    vertex -411.0126342773438 -391.4084777832031 24.8428955078125
    vertex -410.9671630859375 -391.7538452148438 24.49456787109375
  endloop
endfacet
facet normal 0.1305261850357056 -0.9914448857307434 1.587358139651382e-16
  outer loop
    vertex -355.0439758300781 -387.5000610351562 26.24617004394531
    vertex -410.5648803710938 -394.8095397949219 25.73711776733398
    vertex -355.0439758300781 -387.5000610351562 25.73711776733398
  endloop
endfacet
facet normal 0.1305261850357056 -0.9914448857307434 1.587358139651382e-16
  outer loop
    vertex -410.5648803710938 -394.8095397949219 25.73711776733398
    vertex -355.0439758300781 -387.5000610351562 26.24617004394531
    vertex -410.5648803710938 -394.8095397949219 26.24617004394531
  endloop
endfacet
facet normal 0.06526309251785278 -0.4957224428653717 -0.8660253882408142
  outer loop
    vertex -355.1989135742188 -386.3231201171875 24.19007873535156
    vertex -410.6622619628906 -394.0696716308594 24.44460487365723
    vertex -410.7198181152344 -393.6325988769531 24.19007873535156
  endloop
endfacet
facet normal 0.06526309251785278 -0.4957224428653717 -0.8660253882408142
  outer loop
    vertex -410.6622619628906 -394.0696716308594 24.44460487365723
    vertex -355.1989135742188 -386.3231201171875 24.19007873535156
    vertex -355.141357421875 -386.7602233886719 24.44460487365723
  endloop
endfacet
facet normal 0.06526309251785278 -0.4957224428653717 0.8660253882408142
  outer loop
    vertex -410.6622619628906 -394.0696716308594 27.53868293762207
    vertex -355.1989135742188 -386.3231201171875 27.79320907592773
    vertex -410.7198181152344 -393.6325988769531 27.79320907592773
  endloop
endfacet
facet normal 0.06526309251785278 -0.4957224428653717 0.8660253882408142
  outer loop
    vertex -355.1989135742188 -386.3231201171875 27.79320907592773
    vertex -410.6622619628906 -394.0696716308594 27.53868293762207
    vertex -355.141357421875 -386.7602233886719 27.53868293762207
  endloop
endfacet
facet normal 0.09229595214128494 -0.7010573744773865 0.7071067690849304
  outer loop
    vertex -410.6152954101562 -394.4265441894531 27.1787281036377
    vertex -355.141357421875 -386.7602233886719 27.53868293762207
    vertex -410.6622619628906 -394.0696716308594 27.53868293762207
  endloop
endfacet
facet normal 0.09229595214128494 -0.7010573744773865 0.7071067690849304
  outer loop
    vertex -355.141357421875 -386.7602233886719 27.53868293762207
    vertex -410.6152954101562 -394.4265441894531 27.1787281036377
    vertex -355.0943908691406 -387.1170959472656 27.1787281036377
  endloop
endfacet
facet normal 7.077876128683898e-16 9.318200850066187e-17 1
  outer loop
    vertex -410.7839965820312 -393.1451110839844 27.92496109008789
    vertex -355.3295288085938 -385.3309326171875 27.92496109008789
    vertex -410.8504333496094 -392.6404113769531 27.92496109008789
  endloop
endfacet
facet normal 7.077876128683898e-16 9.318200850066187e-17 1
  outer loop
    vertex -355.3295288085938 -385.3309326171875 27.92496109008789
    vertex -410.7839965820312 -393.1451110839844 27.92496109008789
    vertex -355.2630920410156 -385.8356323242188 27.92496109008789
  endloop
endfacet
facet normal -0.03378266468644142 0.2566048204898834 0.9659258127212524
  outer loop
    vertex -410.8504333496094 -392.6404113769531 27.92496109008789
    vertex -355.3937072753906 -384.8434448242188 27.79320907592773
    vertex -410.9146118164062 -392.1528930664062 27.79320907592773
  endloop
endfacet
facet normal -0.03378266468644142 0.2566048204898834 0.9659258127212524
  outer loop
    vertex -355.3937072753906 -384.8434448242188 27.79320907592773
    vertex -410.8504333496094 -392.6404113769531 27.92496109008789
    vertex -355.3295288085938 -385.3309326171875 27.92496109008789
  endloop
endfacet
facet normal -6.604412769135122e-16 -8.694873936393178e-17 -1
  outer loop
    vertex -355.3295288085938 -385.3309326171875 24.05832672119141
    vertex -410.7839965820312 -393.1451110839844 24.05832672119141
    vertex -410.8504333496094 -392.6404113769531 24.05832672119141
  endloop
endfacet
facet normal -6.604412769135122e-16 -8.694873936393178e-17 -1
  outer loop
    vertex -410.7839965820312 -393.1451110839844 24.05832672119141
    vertex -355.3295288085938 -385.3309326171875 24.05832672119141
    vertex -355.2630920410156 -385.8356323242188 24.05832672119141
  endloop
endfacet
facet normal 0.9914448857307434 0.1305261850357056 3.324516226546614e-15
  outer loop
    vertex -352.8370971679688 -388.9403381347656 24.48004341125488
    vertex -352.80224609375 -389.2049255371094 26.50722312927246
    vertex -352.80224609375 -389.2049255371094 25.47606468200684
  endloop
endfacet
facet normal 0.9914448857307434 0.1305261850357056 3.324516226546614e-15
  outer loop
    vertex -352.80224609375 -389.2049255371094 26.50722312927246
    vertex -352.8370971679688 -388.9403381347656 24.48004341125488
    vertex -352.8370971679688 -388.9403381347656 27.50324249267578
  endloop
endfacet
facet normal 0.9914448857307434 0.1305261850357056 3.324516226546614e-15
  outer loop
    vertex -352.8370971679688 -388.9403381347656 27.50324249267578
    vertex -352.8370971679688 -388.9403381347656 24.48004341125488
    vertex -352.9043884277344 -388.4291687011719 23.5870361328125
  endloop
endfacet
facet normal 0.9914448857307434 0.1305261850357056 3.324516226546614e-15
  outer loop
    vertex -352.8370971679688 -388.9403381347656 27.50324249267578
    vertex -352.9043884277344 -388.4291687011719 23.5870361328125
    vertex -352.9043884277344 -388.4291687011719 28.3962516784668
  endloop
endfacet
facet normal 0.9914448857307434 0.1305261850357056 3.324516226546614e-15
  outer loop
    vertex -352.9043884277344 -388.4291687011719 28.3962516784668
    vertex -352.9043884277344 -388.4291687011719 23.5870361328125
    vertex -352.9995422363281 -387.7062683105469 22.8578987121582
  endloop
endfacet
facet normal 0.9914448857307434 0.1305261850357056 3.324516226546614e-15
  outer loop
    vertex -352.9043884277344 -388.4291687011719 28.3962516784668
    vertex -352.9995422363281 -387.7062683105469 22.8578987121582
    vertex -352.9995422363281 -387.7062683105469 29.12538909912109
  endloop
endfacet
facet normal 0.9914448857307434 0.1305261850357056 3.324516226546614e-15
  outer loop
    vertex -352.9995422363281 -387.7062683105469 29.12538909912109
    vertex -352.9995422363281 -387.7062683105469 22.8578987121582
    vertex -353.1161193847656 -386.8208923339844 22.34231948852539
  endloop
endfacet
facet normal 0.9914448857307434 0.1305261850357056 3.324516226546614e-15
  outer loop
    vertex -352.9995422363281 -387.7062683105469 29.12538909912109
    vertex -353.1161193847656 -386.8208923339844 22.34231948852539
    vertex -353.1161193847656 -386.8208923339844 29.64096832275391
  endloop
endfacet
facet normal 0.9914448857307434 0.1305261850357056 3.324516226546614e-15
  outer loop
    vertex -353.1161193847656 -386.8208923339844 29.64096832275391
    vertex -353.1161193847656 -386.8208923339844 22.34231948852539
    vertex -353.2461242675781 -385.8334045410156 22.07543563842773
  endloop
endfacet
facet normal 0.9914448857307434 0.1305261850357056 3.324516226546614e-15
  outer loop
    vertex -353.1161193847656 -386.8208923339844 29.64096832275391
    vertex -353.2461242675781 -385.8334045410156 22.07543563842773
    vertex -353.2461242675781 -385.8334045410156 29.90785026550293
  endloop
endfacet
facet normal 0.9914448857307434 0.1305261850357056 3.324516226546614e-15
  outer loop
    vertex -353.2461242675781 -385.8334045410156 29.90785026550293
    vertex -353.2461242675781 -385.8334045410156 22.07543563842773
    vertex -353.3807067871094 -384.8110656738281 22.07543563842773
  endloop
endfacet
facet normal 0.9914448857307434 0.1305261850357056 3.324516226546614e-15
  outer loop
    vertex -353.2461242675781 -385.8334045410156 29.90785026550293
    vertex -353.3807067871094 -384.8110656738281 22.07543563842773
    vertex -353.3807067871094 -384.8110656738281 29.90785026550293
  endloop
endfacet
facet normal 0.9914448857307434 0.1305261850357056 3.324516226546614e-15
  outer loop
    vertex -353.3807067871094 -384.8110656738281 29.90785026550293
    vertex -353.3807067871094 -384.8110656738281 22.07543563842773
    vertex -353.5107116699219 -383.8235778808594 22.34231948852539
  endloop
endfacet
facet normal 0.9914448857307434 0.1305261850357056 3.324516226546614e-15
  outer loop
    vertex -353.3807067871094 -384.8110656738281 29.90785026550293
    vertex -353.5107116699219 -383.8235778808594 22.34231948852539
    vertex -353.5107116699219 -383.8235778808594 29.64096832275391
  endloop
endfacet
facet normal 0.9914448857307434 0.1305261850357056 3.324516226546614e-15
  outer loop
    vertex -353.5107116699219 -383.8235778808594 29.64096832275391
    vertex -353.5107116699219 -383.8235778808594 22.34231948852539
    vertex -353.6272888183594 -382.9382019042969 22.8578987121582
  endloop
endfacet
facet normal 0.9914448857307434 0.1305261850357056 3.324516226546614e-15
  outer loop
    vertex -353.5107116699219 -383.8235778808594 29.64096832275391
    vertex -353.6272888183594 -382.9382019042969 22.8578987121582
    vertex -353.6272888183594 -382.9382019042969 29.12538909912109
  endloop
endfacet
facet normal 0.9914448857307434 0.1305261850357056 3.324516226546614e-15
  outer loop
    vertex -353.6272888183594 -382.9382019042969 29.12538909912109
    vertex -353.6272888183594 -382.9382019042969 22.8578987121582
    vertex -353.7224426269531 -382.2153015136719 23.5870361328125
  endloop
endfacet
facet normal 0.9914448857307434 0.1305261850357056 3.324516226546614e-15
  outer loop
    vertex -353.6272888183594 -382.9382019042969 29.12538909912109
    vertex -353.7224426269531 -382.2153015136719 23.5870361328125
    vertex -353.7224426269531 -382.2153015136719 28.3962516784668
  endloop
endfacet
facet normal 0.9914448857307434 0.1305261850357056 3.324516226546614e-15
  outer loop
    vertex -353.7224426269531 -382.2153015136719 28.3962516784668
    vertex -353.7224426269531 -382.2153015136719 23.5870361328125
    vertex -353.7897644042969 -381.7041320800781 24.48004341125488
  endloop
endfacet
facet normal 0.9914448857307434 0.1305261850357056 3.324516226546614e-15
  outer loop
    vertex -353.7224426269531 -382.2153015136719 28.3962516784668
    vertex -353.7897644042969 -381.7041320800781 24.48004341125488
    vertex -353.7897644042969 -381.7041320800781 27.50324249267578
  endloop
endfacet
facet normal 0.9914448857307434 0.1305261850357056 3.324516226546614e-15
  outer loop
    vertex -353.7897644042969 -381.7041320800781 27.50324249267578
    vertex -353.7897644042969 -381.7041320800781 24.48004341125488
    vertex -353.8245849609375 -381.4395141601562 25.47606468200684
  endloop
endfacet
facet normal 0.9914448857307434 0.1305261850357056 3.324516226546614e-15
  outer loop
    vertex -353.7897644042969 -381.7041320800781 27.50324249267578
    vertex -353.8245849609375 -381.4395141601562 25.47606468200684
    vertex -353.8245849609375 -381.4395141601562 26.50722312927246
  endloop
endfacet
facet normal -0.06526309251785278 0.4957224428653717 0.8660253882408142
  outer loop
    vertex -410.9146118164062 -392.1528930664062 27.79320907592773
    vertex -355.4512634277344 -384.4063415527344 27.53868293762207
    vertex -410.97216796875 -391.7158203125 27.53868293762207
  endloop
endfacet
facet normal -0.06526309251785278 0.4957224428653717 0.8660253882408142
  outer loop
    vertex -355.4512634277344 -384.4063415527344 27.53868293762207
    vertex -410.9146118164062 -392.1528930664062 27.79320907592773
    vertex -355.3937072753906 -384.8434448242188 27.79320907592773
  endloop
endfacet
facet normal -0.03378266468644142 0.2566048204898834 -0.9659258127212524
  outer loop
    vertex -410.9114685058594 -392.1767883300781 24.24826049804688
    vertex -412.832275390625 -392.9096069335938 24.12076377868652
    vertex -412.8943786621094 -392.4378356933594 24.24826049804688
  endloop
endfacet
facet normal -0.03378266468644142 0.2566048204898834 -0.9659258127212524
  outer loop
    vertex -412.832275390625 -392.9096069335938 24.12076377868652
    vertex -410.9114685058594 -392.1767883300781 24.24826049804688
    vertex -410.849365234375 -392.6485595703125 24.12076377868652
  endloop
endfacet
facet normal -0.1260786205530167 0.9576622247695923 0.258819043636322
  outer loop
    vertex -413.0276794433594 -391.4253234863281 26.71377754211426
    vertex -411.0614318847656 -391.0378723144531 26.23794937133789
    vertex -413.0443115234375 -391.2989196777344 26.23794937133789
  endloop
endfacet
facet normal -0.1260786205530167 0.9576622247695923 0.258819043636322
  outer loop
    vertex -411.0614318847656 -391.0378723144531 26.23794937133789
    vertex -413.0276794433594 -391.4253234863281 26.71377754211426
    vertex -411.0447692871094 -391.1642761230469 26.71377754211426
  endloop
endfacet
facet normal 0.1130390018224716 -0.8586164116859436 -0.5
  outer loop
    vertex -355.0611572265625 -387.3694458007812 25.24541091918945
    vertex -410.6152954101562 -394.4265441894531 24.8045597076416
    vertex -355.0943908691406 -387.1170959472656 24.8045597076416
  endloop
endfacet
facet normal 0.1130390018224716 -0.8586164116859436 -0.5
  outer loop
    vertex -410.6152954101562 -394.4265441894531 24.8045597076416
    vertex -355.0611572265625 -387.3694458007812 25.24541091918945
    vertex -410.5820617675781 -394.6788940429688 25.24541091918945
  endloop
endfacet
facet normal -0.09229595214128494 0.7010573744773865 0.7071067690849304
  outer loop
    vertex -412.9500427246094 -392.014892578125 27.48871994018555
    vertex -411.0126342773438 -391.4084777832031 27.14039039611816
    vertex -412.9955139160156 -391.6695251464844 27.14039039611816
  endloop
endfacet
facet normal -0.09229595214128494 0.7010573744773865 0.7071067690849304
  outer loop
    vertex -411.0126342773438 -391.4084777832031 27.14039039611816
    vertex -412.9500427246094 -392.014892578125 27.48871994018555
    vertex -410.9671630859375 -391.7538452148438 27.48871994018555
  endloop
endfacet
facet normal 0.1260786205530167 -0.9576622247695923 0.258819043636322
  outer loop
    vertex -355.0611572265625 -387.3694458007812 26.73787689208984
    vertex -410.5648803710938 -394.8095397949219 26.24617004394531
    vertex -355.0439758300781 -387.5000610351562 26.24617004394531
  endloop
endfacet
facet normal 0.1260786205530167 -0.9576622247695923 0.258819043636322
  outer loop
    vertex -410.5648803710938 -394.8095397949219 26.24617004394531
    vertex -355.0611572265625 -387.3694458007812 26.73787689208984
    vertex -410.5820617675781 -394.6788940429688 26.73787689208984
  endloop
endfacet
facet normal -0.03378266468644142 0.2566048204898834 -0.9659258127212524
  outer loop
    vertex -355.3937072753906 -384.8434448242188 24.19007873535156
    vertex -410.8504333496094 -392.6404113769531 24.05832672119141
    vertex -410.9146118164062 -392.1528930664062 24.19007873535156
  endloop
endfacet
facet normal -0.03378266468644142 0.2566048204898834 -0.9659258127212524
  outer loop
    vertex -410.8504333496094 -392.6404113769531 24.05832672119141
    vertex -355.3937072753906 -384.8434448242188 24.19007873535156
    vertex -355.3295288085938 -385.3309326171875 24.05832672119141
  endloop
endfacet
facet normal -0.1130390018224716 0.8586164116859436 0.5
  outer loop
    vertex -412.9955139160156 -391.6695251464844 27.14039039611816
    vertex -411.0447692871094 -391.1642761230469 26.71377754211426
    vertex -413.0276794433594 -391.4253234863281 26.71377754211426
  endloop
endfacet
facet normal -0.1130390018224716 0.8586164116859436 0.5
  outer loop
    vertex -411.0447692871094 -391.1642761230469 26.71377754211426
    vertex -412.9955139160156 -391.6695251464844 27.14039039611816
    vertex -411.0126342773438 -391.4084777832031 27.14039039611816
  endloop
endfacet
facet normal -0.1130390018224716 0.8586164116859436 -0.5
  outer loop
    vertex -411.0191650390625 -391.3589477539062 24.8045597076416
    vertex -355.5314636230469 -383.797119140625 25.24541091918945
    vertex -355.4982299804688 -384.0494689941406 24.8045597076416
  endloop
endfacet
facet normal -0.1130390018224716 0.8586164116859436 -0.5
  outer loop
    vertex -355.5314636230469 -383.797119140625 25.24541091918945
    vertex -411.0191650390625 -391.3589477539062 24.8045597076416
    vertex -411.0523681640625 -391.1065979003906 25.24541091918945
  endloop
endfacet
facet normal -0.1130390018224716 0.8586164116859436 -0.5
  outer loop
    vertex -413.0276794433594 -391.4253234863281 25.26951026916504
    vertex -411.0126342773438 -391.4084777832031 24.8428955078125
    vertex -412.9955139160156 -391.6695251464844 24.8428955078125
  endloop
endfacet
facet normal -0.1130390018224716 0.8586164116859436 -0.5
  outer loop
    vertex -411.0126342773438 -391.4084777832031 24.8428955078125
    vertex -413.0276794433594 -391.4253234863281 25.26951026916504
    vertex -411.0447692871094 -391.1642761230469 25.26951026916504
  endloop
endfacet
facet normal -0.06526309251785278 0.4957224428653717 -0.8660253882408142
  outer loop
    vertex -410.9671630859375 -391.7538452148438 24.49456787109375
    vertex -412.8943786621094 -392.4378356933594 24.24826049804688
    vertex -412.9500427246094 -392.014892578125 24.49456787109375
  endloop
endfacet
facet normal -0.06526309251785278 0.4957224428653717 -0.8660253882408142
  outer loop
    vertex -412.8943786621094 -392.4378356933594 24.24826049804688
    vertex -410.9671630859375 -391.7538452148438 24.49456787109375
    vertex -410.9114685058594 -392.1767883300781 24.24826049804688
  endloop
endfacet
facet normal 0.1260786205530167 -0.9576622247695923 -0.258819043636322
  outer loop
    vertex -355.0439758300781 -387.5000610351562 25.73711776733398
    vertex -410.5820617675781 -394.6788940429688 25.24541091918945
    vertex -355.0611572265625 -387.3694458007812 25.24541091918945
  endloop
endfacet
facet normal 0.1260786205530167 -0.9576622247695923 -0.258819043636322
  outer loop
    vertex -410.5820617675781 -394.6788940429688 25.24541091918945
    vertex -355.0439758300781 -387.5000610351562 25.73711776733398
    vertex -410.5648803710938 -394.8095397949219 25.73711776733398
  endloop
endfacet
facet normal -0.03378266468644142 0.2566048204898834 0.9659258127212524
  outer loop
    vertex -412.832275390625 -392.9096069335938 27.86252403259277
    vertex -410.9114685058594 -392.1767883300781 27.73502731323242
    vertex -412.8943786621094 -392.4378356933594 27.73502731323242
  endloop
endfacet
facet normal -0.03378266468644142 0.2566048204898834 0.9659258127212524
  outer loop
    vertex -410.9114685058594 -392.1767883300781 27.73502731323242
    vertex -412.832275390625 -392.9096069335938 27.86252403259277
    vertex -410.849365234375 -392.6485595703125 27.86252403259277
  endloop
endfacet
facet normal 0.09229595214128494 -0.7010573744773865 -0.7071067690849304
  outer loop
    vertex -355.141357421875 -386.7602233886719 24.44460487365723
    vertex -410.6152954101562 -394.4265441894531 24.8045597076416
    vertex -410.6622619628906 -394.0696716308594 24.44460487365723
  endloop
endfacet
facet normal 0.09229595214128494 -0.7010573744773865 -0.7071067690849304
  outer loop
    vertex -410.6152954101562 -394.4265441894531 24.8045597076416
    vertex -355.141357421875 -386.7602233886719 24.44460487365723
    vertex -355.0943908691406 -387.1170959472656 24.8045597076416
  endloop
endfacet
facet normal -0.1305261850357056 0.9914448857307434 6.883832130124269e-17
  outer loop
    vertex -411.069580078125 -390.9759826660156 25.73711776733398
    vertex -355.5486450195312 -383.66650390625 26.24617004394531
    vertex -355.5486450195312 -383.66650390625 25.73711776733398
  endloop
endfacet
facet normal -0.1305261850357056 0.9914448857307434 6.883832130124269e-17
  outer loop
    vertex -355.5486450195312 -383.66650390625 26.24617004394531
    vertex -411.069580078125 -390.9759826660156 25.73711776733398
    vertex -411.069580078125 -390.9759826660156 26.24617004394531
  endloop
endfacet
facet normal -0.9914448857307434 -0.1305261850357056 6.38378239159465e-16
  outer loop
    vertex -410.5648803710938 -394.8095397949219 26.24617004394531
    vertex -410.5730285644531 -394.7476196289062 26.23794937133789
    vertex -410.5648803710938 -394.8095397949219 25.73711776733398
  endloop
endfacet
facet normal -0.9914448857307434 -0.1305261850357056 6.38378239159465e-16
  outer loop
    vertex -410.5730285644531 -394.7476196289062 26.23794937133789
    vertex -410.5648803710938 -394.8095397949219 26.24617004394531
    vertex -410.5820617675781 -394.6788940429688 26.73787689208984
  endloop
endfacet
facet normal -0.9914448857307434 -0.1305261850357056 6.38378239159465e-16
  outer loop
    vertex -410.5730285644531 -394.7476196289062 26.23794937133789
    vertex -410.5820617675781 -394.6788940429688 26.73787689208984
    vertex -410.5896606445312 -394.6212158203125 26.71377754211426
  endloop
endfacet
facet normal -0.9914448857307434 -0.1305261850357056 6.38378239159465e-16
  outer loop
    vertex -410.5896606445312 -394.6212158203125 26.71377754211426
    vertex -410.5820617675781 -394.6788940429688 26.73787689208984
    vertex -410.6152954101562 -394.4265441894531 27.1787281036377
  endloop
endfacet
facet normal -0.9914448857307434 -0.1305261850357056 6.38378239159465e-16
  outer loop
    vertex -410.5896606445312 -394.6212158203125 26.71377754211426
    vertex -410.6152954101562 -394.4265441894531 27.1787281036377
    vertex -410.621826171875 -394.3770141601562 27.14039039611816
  endloop
endfacet
facet normal -0.9914448857307434 -0.1305261850357056 6.38378239159465e-16
  outer loop
    vertex -410.621826171875 -394.3770141601562 27.14039039611816
    vertex -410.6152954101562 -394.4265441894531 27.1787281036377
    vertex -410.6622619628906 -394.0696716308594 27.53868293762207
  endloop
endfacet
facet normal -0.9914448857307434 -0.1305261850357056 6.38378239159465e-16
  outer loop
    vertex -410.621826171875 -394.3770141601562 27.14039039611816
    vertex -410.6622619628906 -394.0696716308594 27.53868293762207
    vertex -410.6672668457031 -394.0316772460938 27.48871994018555
  endloop
endfacet
facet normal -0.9914448857307434 -0.1305261850357056 6.38378239159465e-16
  outer loop
    vertex -410.6672668457031 -394.0316772460938 27.48871994018555
    vertex -410.6622619628906 -394.0696716308594 27.53868293762207
    vertex -410.7198181152344 -393.6325988769531 27.79320907592773
  endloop
endfacet
facet normal -0.9914448857307434 -0.1305261850357056 6.38378239159465e-16
  outer loop
    vertex -410.6672668457031 -394.0316772460938 27.48871994018555
    vertex -410.7198181152344 -393.6325988769531 27.79320907592773
    vertex -410.7229614257812 -393.6087036132812 27.73502731323242
  endloop
endfacet
facet normal -0.9914448857307434 -0.1305261850357056 6.38378239159465e-16
  outer loop
    vertex -410.7229614257812 -393.6087036132812 27.73502731323242
    vertex -410.7198181152344 -393.6325988769531 27.79320907592773
    vertex -410.7839965820312 -393.1451110839844 27.92496109008789
  endloop
endfacet
facet normal -0.9914448857307434 -0.1305261850357056 6.38378239159465e-16
  outer loop
    vertex -410.7229614257812 -393.6087036132812 27.73502731323242
    vertex -410.7839965820312 -393.1451110839844 27.92496109008789
    vertex -410.7850646972656 -393.136962890625 27.86252403259277
  endloop
endfacet
facet normal -0.9914448857307434 -0.1305261850357056 6.38378239159465e-16
  outer loop
    vertex -410.7850646972656 -393.136962890625 27.86252403259277
    vertex -410.7839965820312 -393.1451110839844 27.92496109008789
    vertex -410.8504333496094 -392.6404113769531 27.92496109008789
  endloop
endfacet
facet normal -0.9914448857307434 -0.1305261850357056 6.38378239159465e-16
  outer loop
    vertex -410.7850646972656 -393.136962890625 27.86252403259277
    vertex -410.8504333496094 -392.6404113769531 27.92496109008789
    vertex -410.849365234375 -392.6485595703125 27.86252403259277
  endloop
endfacet
facet normal -0.9914448857307434 -0.1305261850357056 6.38378239159465e-16
  outer loop
    vertex -410.849365234375 -392.6485595703125 27.86252403259277
    vertex -410.8504333496094 -392.6404113769531 27.92496109008789
    vertex -410.9114685058594 -392.1767883300781 27.73502731323242
  endloop
endfacet
facet normal -0.9914448857307434 -0.1305261850357056 6.38378239159465e-16
  outer loop
    vertex -410.9114685058594 -392.1767883300781 27.73502731323242
    vertex -410.8504333496094 -392.6404113769531 27.92496109008789
    vertex -410.9146118164062 -392.1528930664062 27.79320907592773
  endloop
endfacet
facet normal -0.9914448857307434 -0.1305261850357056 6.38378239159465e-16
  outer loop
    vertex -410.9114685058594 -392.1767883300781 27.73502731323242
    vertex -410.9146118164062 -392.1528930664062 27.79320907592773
    vertex -410.9671630859375 -391.7538452148438 27.48871994018555
  endloop
endfacet
facet normal -0.9914448857307434 -0.1305261850357056 6.38378239159465e-16
  outer loop
    vertex -410.9671630859375 -391.7538452148438 27.48871994018555
    vertex -410.9146118164062 -392.1528930664062 27.79320907592773
    vertex -410.97216796875 -391.7158203125 27.53868293762207
  endloop
endfacet
facet normal -0.9914448857307434 -0.1305261850357056 6.38378239159465e-16
  outer loop
    vertex -410.9671630859375 -391.7538452148438 27.48871994018555
    vertex -410.97216796875 -391.7158203125 27.53868293762207
    vertex -411.0126342773438 -391.4084777832031 27.14039039611816
  endloop
endfacet
facet normal -0.9914448857307434 -0.1305261850357056 6.38378239159465e-16
  outer loop
    vertex -411.0126342773438 -391.4084777832031 27.14039039611816
    vertex -410.97216796875 -391.7158203125 27.53868293762207
    vertex -411.0191650390625 -391.3589477539062 27.1787281036377
  endloop
endfacet
facet normal -0.9914448857307434 -0.1305261850357056 6.38378239159465e-16
  outer loop
    vertex -411.0126342773438 -391.4084777832031 27.14039039611816
    vertex -411.0191650390625 -391.3589477539062 27.1787281036377
    vertex -411.0447692871094 -391.1642761230469 26.71377754211426
  endloop
endfacet
facet normal -0.9914448857307434 -0.1305261850357056 6.38378239159465e-16
  outer loop
    vertex -411.0447692871094 -391.1642761230469 26.71377754211426
    vertex -411.0191650390625 -391.3589477539062 27.1787281036377
    vertex -411.0523681640625 -391.1065979003906 26.73787689208984
  endloop
endfacet
facet normal -0.9914448857307434 -0.1305261850357056 6.38378239159465e-16
  outer loop
    vertex -411.0447692871094 -391.1642761230469 26.71377754211426
    vertex -411.0523681640625 -391.1065979003906 26.73787689208984
    vertex -411.0614318847656 -391.0378723144531 26.23794937133789
  endloop
endfacet
facet normal -0.9914448857307434 -0.1305261850357056 6.38378239159465e-16
  outer loop
    vertex -411.0614318847656 -391.0378723144531 26.23794937133789
    vertex -411.0523681640625 -391.1065979003906 26.73787689208984
    vertex -411.069580078125 -390.9759826660156 26.24617004394531
  endloop
endfacet
facet normal -0.9914448857307434 -0.1305261850357056 6.38378239159465e-16
  outer loop
    vertex -411.0614318847656 -391.0378723144531 26.23794937133789
    vertex -411.069580078125 -390.9759826660156 26.24617004394531
    vertex -411.0614318847656 -391.0378723144531 25.74533843994141
  endloop
endfacet
facet normal -0.9914448857307434 -0.1305261850357056 6.38378239159465e-16
  outer loop
    vertex -410.5648803710938 -394.8095397949219 25.73711776733398
    vertex -410.5730285644531 -394.7476196289062 25.74533843994141
    vertex -410.5820617675781 -394.6788940429688 25.24541091918945
  endloop
endfacet
facet normal -0.9914448857307434 -0.1305261850357056 6.38378239159465e-16
  outer loop
    vertex -410.5730285644531 -394.7476196289062 25.74533843994141
    vertex -410.5648803710938 -394.8095397949219 25.73711776733398
    vertex -410.5730285644531 -394.7476196289062 26.23794937133789
  endloop
endfacet
facet normal -0.9914448857307434 -0.1305261850357056 6.38378239159465e-16
  outer loop
    vertex -410.5820617675781 -394.6788940429688 25.24541091918945
    vertex -410.5730285644531 -394.7476196289062 25.74533843994141
    vertex -410.5896606445312 -394.6212158203125 25.26951026916504
  endloop
endfacet
facet normal -0.9914448857307434 -0.1305261850357056 6.38378239159465e-16
  outer loop
    vertex -410.5820617675781 -394.6788940429688 25.24541091918945
    vertex -410.5896606445312 -394.6212158203125 25.26951026916504
    vertex -410.6152954101562 -394.4265441894531 24.8045597076416
  endloop
endfacet
facet normal -0.9914448857307434 -0.1305261850357056 6.38378239159465e-16
  outer loop
    vertex -410.6152954101562 -394.4265441894531 24.8045597076416
    vertex -410.5896606445312 -394.6212158203125 25.26951026916504
    vertex -410.621826171875 -394.3770141601562 24.8428955078125
  endloop
endfacet
facet normal -0.9914448857307434 -0.1305261850357056 6.38378239159465e-16
  outer loop
    vertex -410.6152954101562 -394.4265441894531 24.8045597076416
    vertex -410.621826171875 -394.3770141601562 24.8428955078125
    vertex -410.6622619628906 -394.0696716308594 24.44460487365723
  endloop
endfacet
facet normal -0.9914448857307434 -0.1305261850357056 6.38378239159465e-16
  outer loop
    vertex -410.6622619628906 -394.0696716308594 24.44460487365723
    vertex -410.621826171875 -394.3770141601562 24.8428955078125
    vertex -410.6672668457031 -394.0316772460938 24.49456787109375
  endloop
endfacet
facet normal -0.9914448857307434 -0.1305261850357056 6.38378239159465e-16
  outer loop
    vertex -410.6622619628906 -394.0696716308594 24.44460487365723
    vertex -410.6672668457031 -394.0316772460938 24.49456787109375
    vertex -410.7198181152344 -393.6325988769531 24.19007873535156
  endloop
endfacet
facet normal -0.9914448857307434 -0.1305261850357056 6.38378239159465e-16
  outer loop
    vertex -410.7198181152344 -393.6325988769531 24.19007873535156
    vertex -410.6672668457031 -394.0316772460938 24.49456787109375
    vertex -410.7229614257812 -393.6087036132812 24.24826049804688
  endloop
endfacet
facet normal -0.9914448857307434 -0.1305261850357056 6.38378239159465e-16
  outer loop
    vertex -410.7198181152344 -393.6325988769531 24.19007873535156
    vertex -410.7229614257812 -393.6087036132812 24.24826049804688
    vertex -410.7839965820312 -393.1451110839844 24.05832672119141
  endloop
endfacet
facet normal -0.9914448857307434 -0.1305261850357056 6.38378239159465e-16
  outer loop
    vertex -410.7839965820312 -393.1451110839844 24.05832672119141
    vertex -410.7229614257812 -393.6087036132812 24.24826049804688
    vertex -410.7850646972656 -393.136962890625 24.12076377868652
  endloop
endfacet
facet normal -0.9914448857307434 -0.1305261850357056 6.38378239159465e-16
  outer loop
    vertex -410.7839965820312 -393.1451110839844 24.05832672119141
    vertex -410.7850646972656 -393.136962890625 24.12076377868652
    vertex -410.8504333496094 -392.6404113769531 24.05832672119141
  endloop
endfacet
facet normal -0.9914448857307434 -0.1305261850357056 6.38378239159465e-16
  outer loop
    vertex -410.8504333496094 -392.6404113769531 24.05832672119141
    vertex -410.7850646972656 -393.136962890625 24.12076377868652
    vertex -410.849365234375 -392.6485595703125 24.12076377868652
  endloop
endfacet
facet normal -0.9914448857307434 -0.1305261850357056 6.38378239159465e-16
  outer loop
    vertex -410.8504333496094 -392.6404113769531 24.05832672119141
    vertex -410.849365234375 -392.6485595703125 24.12076377868652
    vertex -410.9114685058594 -392.1767883300781 24.24826049804688
  endloop
endfacet
facet normal -0.9914448857307434 -0.1305261850357056 6.38378239159465e-16
  outer loop
    vertex -410.8504333496094 -392.6404113769531 24.05832672119141
    vertex -410.9114685058594 -392.1767883300781 24.24826049804688
    vertex -410.9146118164062 -392.1528930664062 24.19007873535156
  endloop
endfacet
facet normal -0.9914448857307434 -0.1305261850357056 6.38378239159465e-16
  outer loop
    vertex -410.9146118164062 -392.1528930664062 24.19007873535156
    vertex -410.9114685058594 -392.1767883300781 24.24826049804688
    vertex -410.9671630859375 -391.7538452148438 24.49456787109375
  endloop
endfacet
facet normal -0.9914448857307434 -0.1305261850357056 6.38378239159465e-16
  outer loop
    vertex -410.9146118164062 -392.1528930664062 24.19007873535156
    vertex -410.9671630859375 -391.7538452148438 24.49456787109375
    vertex -410.97216796875 -391.7158203125 24.44460487365723
  endloop
endfacet
facet normal -0.9914448857307434 -0.1305261850357056 6.38378239159465e-16
  outer loop
    vertex -410.97216796875 -391.7158203125 24.44460487365723
    vertex -410.9671630859375 -391.7538452148438 24.49456787109375
    vertex -411.0126342773438 -391.4084777832031 24.8428955078125
  endloop
endfacet
facet normal -0.9914448857307434 -0.1305261850357056 6.38378239159465e-16
  outer loop
    vertex -410.97216796875 -391.7158203125 24.44460487365723
    vertex -411.0126342773438 -391.4084777832031 24.8428955078125
    vertex -411.0191650390625 -391.3589477539062 24.8045597076416
  endloop
endfacet
facet normal -0.9914448857307434 -0.1305261850357056 6.38378239159465e-16
  outer loop
    vertex -411.0191650390625 -391.3589477539062 24.8045597076416
    vertex -411.0126342773438 -391.4084777832031 24.8428955078125
    vertex -411.0447692871094 -391.1642761230469 25.26951026916504
  endloop
endfacet
facet normal -0.9914448857307434 -0.1305261850357056 6.38378239159465e-16
  outer loop
    vertex -411.0191650390625 -391.3589477539062 24.8045597076416
    vertex -411.0447692871094 -391.1642761230469 25.26951026916504
    vertex -411.0523681640625 -391.1065979003906 25.24541091918945
  endloop
endfacet
facet normal -0.9914448857307434 -0.1305261850357056 6.38378239159465e-16
  outer loop
    vertex -411.0523681640625 -391.1065979003906 25.24541091918945
    vertex -411.0447692871094 -391.1642761230469 25.26951026916504
    vertex -411.0614318847656 -391.0378723144531 25.74533843994141
  endloop
endfacet
facet normal -0.9914448857307434 -0.1305261850357056 6.38378239159465e-16
  outer loop
    vertex -411.0523681640625 -391.1065979003906 25.24541091918945
    vertex -411.0614318847656 -391.0378723144531 25.74533843994141
    vertex -411.069580078125 -390.9759826660156 25.73711776733398
  endloop
endfacet
facet normal -0.9914448857307434 -0.1305261850357056 6.38378239159465e-16
  outer loop
    vertex -411.069580078125 -390.9759826660156 25.73711776733398
    vertex -411.0614318847656 -391.0378723144531 25.74533843994141
    vertex -411.069580078125 -390.9759826660156 26.24617004394531
  endloop
endfacet
facet normal -0.1305261850357056 0.9914448857307434 9.08086878804483e-14
  outer loop
    vertex -413.0443115234375 -391.2989196777344 26.23794937133789
    vertex -411.0614318847656 -391.0378723144531 25.74533843994141
    vertex -413.0443115234375 -391.2989196777344 25.74533843994141
  endloop
endfacet
facet normal -0.1305261850357056 0.9914448857307434 9.08086878804483e-14
  outer loop
    vertex -411.0614318847656 -391.0378723144531 25.74533843994141
    vertex -413.0443115234375 -391.2989196777344 26.23794937133789
    vertex -411.0614318847656 -391.0378723144531 26.23794937133789
  endloop
endfacet
facet normal 0.03378266468644142 -0.2566048204898834 -0.9659258127212524
  outer loop
    vertex -355.2630920410156 -385.8356323242188 24.05832672119141
    vertex -410.7198181152344 -393.6325988769531 24.19007873535156
    vertex -410.7839965820312 -393.1451110839844 24.05832672119141
  endloop
endfacet
facet normal 0.03378266468644142 -0.2566048204898834 -0.9659258127212524
  outer loop
    vertex -410.7198181152344 -393.6325988769531 24.19007873535156
    vertex -355.2630920410156 -385.8356323242188 24.05832672119141
    vertex -355.1989135742188 -386.3231201171875 24.19007873535156
  endloop
endfacet
facet normal -0.09229595214128494 0.7010573744773865 -0.7071067690849304
  outer loop
    vertex -355.4982299804688 -384.0494689941406 24.8045597076416
    vertex -410.97216796875 -391.7158203125 24.44460487365723
    vertex -411.0191650390625 -391.3589477539062 24.8045597076416
  endloop
endfacet
facet normal -0.09229595214128494 0.7010573744773865 -0.7071067690849304
  outer loop
    vertex -410.97216796875 -391.7158203125 24.44460487365723
    vertex -355.4982299804688 -384.0494689941406 24.8045597076416
    vertex -355.4512634277344 -384.4063415527344 24.44460487365723
  endloop
endfacet
facet normal -0.09229595214128494 0.7010573744773865 0.7071067690849304
  outer loop
    vertex -410.97216796875 -391.7158203125 27.53868293762207
    vertex -355.4982299804688 -384.0494689941406 27.1787281036377
    vertex -411.0191650390625 -391.3589477539062 27.1787281036377
  endloop
endfacet
facet normal -0.09229595214128494 0.7010573744773865 0.7071067690849304
  outer loop
    vertex -355.4982299804688 -384.0494689941406 27.1787281036377
    vertex -410.97216796875 -391.7158203125 27.53868293762207
    vertex -355.4512634277344 -384.4063415527344 27.53868293762207
  endloop
endfacet
facet normal 0.1130390018224716 -0.8586164116859436 0.5
  outer loop
    vertex -355.0943908691406 -387.1170959472656 27.1787281036377
    vertex -410.5820617675781 -394.6788940429688 26.73787689208984
    vertex -355.0611572265625 -387.3694458007812 26.73787689208984
  endloop
endfacet
facet normal 0.1130390018224716 -0.8586164116859436 0.5
  outer loop
    vertex -410.5820617675781 -394.6788940429688 26.73787689208984
    vertex -355.0943908691406 -387.1170959472656 27.1787281036377
    vertex -410.6152954101562 -394.4265441894531 27.1787281036377
  endloop
endfacet
facet normal -8.614820587850378e-16 1.143441115717628e-14 1
  outer loop
    vertex -412.7679748535156 -393.3980102539062 27.86252403259277
    vertex -410.849365234375 -392.6485595703125 27.86252403259277
    vertex -412.832275390625 -392.9096069335938 27.86252403259277
  endloop
endfacet
facet normal -8.614820587850378e-16 1.143441115717628e-14 1
  outer loop
    vertex -410.849365234375 -392.6485595703125 27.86252403259277
    vertex -412.7679748535156 -393.3980102539062 27.86252403259277
    vertex -410.7850646972656 -393.136962890625 27.86252403259277
  endloop
endfacet
endsolid EAF9
